<?xml version="1.0" standalone="no"?>
<!DOCTYPE svg PUBLIC "-//W3C//DTD SVG 1.1//EN" "http://www.w3.org/Graphics/SVG/1.1/DTD/svg11.dtd" >
<svg xmlns="http://www.w3.org/2000/svg">
<metadata>Generated by IcoMoon</metadata>
<defs>
<font id="icomoon" horiz-adv-x="1024">
<font-face units-per-em="1024" ascent="960" descent="-64" />
<missing-glyph horiz-adv-x="1024" />
<glyph unicode="&#x20;" horiz-adv-x="512" d="" />
<glyph unicode="&#xe900;" glyph-name="1" d="M107.392 91.605c0 0 0 0 0 0-12.183 0-22.059 9.876-22.059 22.059 0 0.015 0 0.030 0 0.045v-0.002c0 12.183 9.876 22.059 22.059 22.059v0h809.259c12.183 0 22.059-9.876 22.059-22.059v0c0-0.013 0-0.028 0-0.043 0-12.183-9.876-22.059-22.059-22.059 0 0 0 0 0 0v0zM754.816 220.971v511.104l-76.8-70.528c-3.916-3.588-9.156-5.787-14.91-5.787-6.434 0-12.226 2.749-16.265 7.137l-0.014 0.016c-3.6 3.919-5.807 9.168-5.807 14.932 0 6.423 2.74 12.206 7.114 16.244l0.015 0.014 113.749 104.491c3.912 3.596 9.153 5.8 14.908 5.8 3.221 0 6.281-0.69 9.039-1.931l-0.139 0.056c7.827-3.49 13.184-11.203 13.184-20.167 0-0.005 0-0.010 0-0.015v0.001-561.365c0-0.013 0-0.028 0-0.043 0-12.183-9.876-22.059-22.059-22.059 0 0 0 0 0 0v0c-12.169 0.048-22.016 9.925-22.016 22.101 0 0 0 0 0 0v0zM238.549 220.971v511.104l-76.8-70.528c-3.916-3.588-9.156-5.787-14.91-5.787-6.434 0-12.226 2.749-16.265 7.137l-0.014 0.016c-3.6 3.919-5.807 9.168-5.807 14.932 0 6.423 2.74 12.206 7.114 16.244l0.015 0.014 113.749 104.491c3.912 3.596 9.153 5.8 14.908 5.8 3.221 0 6.281-0.69 9.039-1.931l-0.139 0.056c7.827-3.49 13.184-11.203 13.184-20.167 0-0.005 0-0.010 0-0.015v0.001-561.365c0-0.013 0-0.028 0-0.043 0-12.183-9.876-22.059-22.059-22.059 0 0 0 0 0 0v0c-12.133 0.097-21.931 9.954-21.931 22.101 0 0 0 0 0 0.001v0zM489.899 340.437v28.672c0 0.013 0 0.028 0 0.043 0 12.159 9.857 22.016 22.016 22.016 0.015 0 0.030 0 0.045 0h-0.002c12.183 0 22.059-9.876 22.059-22.059v-28.672c0 0 0 0 0 0 0-12.191-9.871-22.077-22.056-22.101h-0.002c-12.146 0.048-21.973 9.906-21.973 22.059 0 0.015 0 0.030 0 0.045v-0.002zM489.899 512.469v28.672c0 0.013 0 0.028 0 0.043 0 12.183 9.876 22.059 22.059 22.059 0 0 0 0 0 0v0c12.188-0.024 22.059-9.91 22.059-22.101 0 0 0 0 0 0v-28.672c0-12.183-9.876-22.059-22.059-22.059v0c-12.146 0.048-21.973 9.906-21.973 22.059 0 0 0 0 0 0v0z" />
<glyph unicode="&#xe901;" glyph-name="add_1" d="M512 692.181c-14.987 0-27.136-12.149-27.136-27.136v0-189.909h-189.909c-14.987 0-27.136-12.149-27.136-27.136s12.149-27.136 27.136-27.136h189.909v-189.909c0-14.987 12.149-27.136 27.136-27.136s27.136 12.149 27.136 27.136v189.909h189.909c14.987 0 27.136 12.149 27.136 27.136s-12.149 27.136-27.136 27.136h-189.909v189.909c0 14.987-12.149 27.136-27.136 27.136v0zM512 21.333c-235.641 0-426.667 191.025-426.667 426.667s191.025 426.667 426.667 426.667c235.641 0 426.667-191.025 426.667-426.667v0c-0.267-235.534-191.133-426.4-426.641-426.667h-0.025zM512 832c-212.077 0-384-171.923-384-384s171.923-384 384-384c212.077 0 384 171.923 384 384v0c-0.243 211.98-172.021 383.758-383.977 384h-0.023z" />
<glyph unicode="&#xe902;" glyph-name="add-1" d="M512 874.667c-235.641 0-426.667-191.025-426.667-426.667s191.025-426.667 426.667-426.667c235.641 0 426.667 191.025 426.667 426.667v0c0 235.641-191.025 426.667-426.667 426.667v0zM729.045 420.864h-189.909v-189.909c0-14.987-12.149-27.136-27.136-27.136s-27.136 12.149-27.136 27.136v0 189.909h-189.781c-14.987 0-27.136 12.149-27.136 27.136s12.149 27.136 27.136 27.136h189.909v189.909c0 14.987 12.149 27.136 27.136 27.136s27.136-12.149 27.136-27.136v0-189.909h189.909c14.987 0 27.136-12.149 27.136-27.136s-12.149-27.136-27.136-27.136v0z" />
<glyph unicode="&#xe903;" glyph-name="add-circle" d="M796.459 21.333h-568.917c-78.5 0.097-142.111 63.708-142.208 142.199v568.926c0.097 78.5 63.708 142.111 142.199 142.208h568.927c78.5-0.097 142.111-63.708 142.208-142.199v-568.926c-0.097-78.5-63.708-142.111-142.199-142.208h-0.009zM227.541 827.264c-52.33-0.073-94.733-42.475-94.805-94.798v-568.924c0.073-52.33 42.475-94.733 94.798-94.805h568.924c52.33 0.073 94.733 42.475 94.805 94.798v568.924c-0.073 52.33-42.475 94.733-94.798 94.805h-0.007zM512 661.333c-13.102 0-23.723-10.621-23.723-23.723v0-165.888h-165.888c-0.3 0.014-0.652 0.021-1.006 0.021-13.102 0-23.723-10.621-23.723-23.723s10.621-23.723 23.723-23.723c0.354 0 0.706 0.008 1.056 0.023l-0.050-0.002h165.888v-165.931c0.554-12.662 10.953-22.717 23.701-22.717s23.147 10.055 23.7 22.667l0.002 0.050v165.888h165.931c12.662 0.554 22.717 10.953 22.717 23.701s-10.055 23.147-22.667 23.7l-0.050 0.002h-165.888v165.931c0 13.102-10.621 23.723-23.723 23.723v0z" />
<glyph unicode="&#xe904;" glyph-name="add-file" d="M768 21.333h-512c-70.692 0-128 57.308-128 128v0 597.333c0 70.692 57.308 128 128 128v0h416.341c3.285 0 6.784 0 10.325-0.427h2.304c30.617-3.16 57.603-16.647 77.869-36.866l95.699-95.699c20.799-20.824 34.462-48.78 37.005-79.884l0.030-0.458c0.299-3.669 0.427-7.040 0.427-10.325v-501.675c0-70.692-57.308-128-128-128v0zM256 832c-47.128 0-85.333-38.205-85.333-85.333v0-597.333c0-47.128 38.205-85.333 85.333-85.333v0h512c47.128 0 85.333 38.205 85.333 85.333v0 469.333h-128c-47.128 0-85.333 38.205-85.333 85.333v0 128zM682.667 831.36v0-127.36c0-23.564 19.103-42.667 42.667-42.667v0h127.317c-2.465 19.684-11.308 36.95-24.363 50.005l-95.659 95.659c-12.544 12.507-28.944 21.153-47.262 24.002l-0.482 0.062h-0.981zM512 554.667c-11.782 0-21.333-9.551-21.333-21.333v0-106.667h-106.667c-11.782 0-21.333-9.551-21.333-21.333s9.551-21.333 21.333-21.333v0h106.667v-106.667c0-11.782 9.551-21.333 21.333-21.333s21.333 9.551 21.333 21.333v0 106.667h106.667c11.782 0 21.333 9.551 21.333 21.333s-9.551 21.333-21.333 21.333v0h-106.667v106.667c0 11.782-9.551 21.333-21.333 21.333v0z" />
<glyph unicode="&#xe905;" glyph-name="add" d="M512 874.667c-15.717 0-28.459-12.741-28.459-28.459v0-369.749h-369.749c-0.329 0.014-0.714 0.021-1.102 0.021-15.717 0-28.459-12.741-28.459-28.459s12.741-28.459 28.459-28.459c0.387 0 0.773 0.008 1.157 0.023l-0.055-0.002h369.749v-369.792c0.609-15.236 13.107-27.357 28.437-27.357s27.829 12.121 28.436 27.302l0.002 0.055v369.749h369.792c15.236 0.609 27.357 13.107 27.357 28.437s-12.121 27.829-27.302 28.436l-0.055 0.002h-369.749v369.792c0 15.717-12.741 28.459-28.459 28.459v0z" />
<glyph unicode="&#xe906;" glyph-name="adsorption-grid" d="M205.227 630.997h126.336c33.354-0.049 60.373-27.098 60.373-60.459 0 0 0 0 0 0v0-179.755c0.097-66.371 53.899-120.143 120.273-120.192h0.005c66.341 0.097 120.095 53.851 120.192 120.183v179.764c0 0 0 0 0 0 0 33.36 27.020 60.41 60.369 60.459h126.341c33.304-0.145 60.245-27.177 60.245-60.501 0 0 0 0 0-0.001v0-181.845c-0.243-202.789-164.57-367.117-367.336-367.36h-0.024c-202.817 0.218-367.179 164.55-367.445 367.335v181.87c0 0 0 0 0 0 0 33.414 27.087 60.501 60.501 60.501 0.060 0 0.12 0 0.18 0h-0.009zM512.427 225.28c-91.417 0.073-165.511 74.137-165.632 165.535v179.767c0 0.013 0 0.028 0 0.043 0 8.303-6.719 15.037-15.016 15.061h-126.551c-8.342 0-15.104-6.762-15.104-15.104v0-181.845c0.243-177.771 144.313-321.811 322.072-322.005h0.019c177.751 0.218 321.787 144.255 322.005 321.984v181.866c0 8.342-6.762 15.104-15.104 15.104v0h-126.507c-8.3-0.024-15.019-6.758-15.019-15.061 0-0.015 0-0.030 0-0.045v0.002-179.755c-0.097-91.39-74.157-165.45-165.537-165.547h-0.009zM677.888 874.667h160.683c22.518-0.024 40.765-18.272 40.789-40.787v-84.439c-0.024-22.518-18.272-40.765-40.787-40.789h-160.685c-22.518 0.024-40.765 18.272-40.789 40.787v84.439c0.024 22.518 18.272 40.765 40.787 40.789h0.002zM834.048 829.312h-151.595v-75.307h151.595zM185.387 874.667h160.683c22.518-0.024 40.765-18.272 40.789-40.787v-84.439c-0.024-22.518-18.272-40.765-40.787-40.789h-160.685c-22.518 0.024-40.765 18.272-40.789 40.787v84.439c0.024 22.518 18.272 40.765 40.787 40.789h0.002zM341.547 829.312h-151.595v-75.307h151.595z" />
<glyph unicode="&#xe907;" glyph-name="alarm-1" d="M512.043 21.333c-203.788 0.025-368.981 165.233-368.981 369.024 0 195.67 152.29 355.771 344.808 368.242l1.090 0.057v69.888h-69.163c-12.736 0-23.061 10.325-23.061 23.061s10.325 23.061 23.061 23.061v0h184.448c12.736 0 23.061-10.325 23.061-23.061s-10.325-23.061-23.061-23.061v0h-69.163v-69.888c193.609-12.528 345.898-172.629 345.898-368.299 0-203.776-165.169-368.975-368.934-369.024h-0.005zM512.043 713.216c-178.292-0.024-322.816-144.564-322.816-322.859 0-178.31 144.549-322.859 322.859-322.859 178.295 0 322.835 144.525 322.859 322.814v0.002c-0.194 178.256-144.646 322.707-322.883 322.901h-0.018zM227.584 810.496c-32.421-22.117-60.68-46.393-86.010-73.445l-0.262-0.283c-3.578-3.908-5.771-9.136-5.771-14.876 0-6.799 3.076-12.879 7.912-16.926l0.035-0.028c4.077-3.404 9.374-5.47 15.153-5.47 6.891 0 13.096 2.938 17.43 7.63l0.015 0.016c22.441 23.761 47.124 44.962 73.848 63.419l1.544 1.008c6.417 4.313 10.583 11.546 10.583 19.752 0 4.473-1.238 8.656-3.39 12.227l0.060-0.107c-3.919 6.49-10.934 10.763-18.947 10.763-4.545 0-8.769-1.375-12.279-3.731l0.079 0.050zM796.459 810.368c32.423-22.082 60.681-46.317 86.018-73.326l0.254-0.274c3.578-3.908 5.771-9.136 5.771-14.876 0-6.799-3.076-12.879-7.912-16.926l-0.035-0.028c-4.081-3.415-9.386-5.489-15.175-5.489-6.879 0-13.075 2.928-17.408 7.607l-0.014 0.015c-22.442 23.778-47.125 44.993-73.851 63.462l-1.541 1.007c-6.4 4.316-10.553 11.539-10.553 19.731 0 4.481 1.242 8.672 3.402 12.247l-0.060-0.106c3.932 6.427 10.913 10.651 18.88 10.651 4.555 0 8.788-1.381 12.303-3.747l-0.079 0.050zM512 298.112c-50.891 0.072-92.118 41.344-92.118 92.245 0 50.946 41.3 92.245 92.245 92.245 17.26 0 33.413-4.741 47.228-12.991l-0.422 0.233 98.133 98.133c4.175 4.18 9.946 6.766 16.32 6.766 12.738 0 23.065-10.327 23.065-23.065 0-6.364-2.577-12.126-6.745-16.299v0l-98.133-98.133c8.012-13.394 12.75-29.546 12.75-46.805 0-50.952-41.29-92.259-92.235-92.288h-0.003zM512 436.523c-25.473 0-46.123-20.65-46.123-46.123s20.65-46.123 46.123-46.123c25.458 0 46.098 20.626 46.123 46.078v0.002c-0.024 25.463-20.66 46.098-46.12 46.123h-0.002z" />
<glyph unicode="&#xe908;" glyph-name="alarm" d="M512 57.173c-195.889 0-354.688 158.799-354.688 354.688s158.799 354.688 354.688 354.688c195.889 0 354.688-158.799 354.688-354.688v0c-0.218-195.801-158.887-354.469-354.667-354.688h-0.021zM512 722.219c-171.406 0-310.357-138.952-310.357-310.357s138.952-310.357 310.357-310.357c171.406 0 310.357 138.952 310.357 310.357v0c-0.194 171.327-139.030 310.163-310.339 310.357h-0.019zM534.144 589.184v-158.976c0.005-6.114 2.482-11.649 6.486-15.659v0l75.691-75.691c3.714-3.957 5.995-9.296 5.995-15.168 0-12.253-9.933-22.187-22.187-22.187-5.872 0-11.212 2.281-15.18 6.006l0.012-0.011-75.648 75.691c-12.039 12.031-19.489 28.654-19.499 47.017v158.978c0.535 11.828 10.254 21.214 22.165 21.214s21.63-9.386 22.164-21.166l0.002-0.048zM271.488 836.096c-76.982-44.164-139.171-106.244-182.213-180.771l-1.254-2.354c-1.68-2.979-2.67-6.541-2.67-10.334 0-8.324 4.768-15.535 11.721-19.050l0.122-0.056c2.962-1.493 6.455-2.367 10.153-2.367 8.546 0 16.002 4.671 19.953 11.598l0.059 0.113c39.914 68.584 95.479 124.066 162.019 162.745l2.12 1.137c7.069 4.004 11.762 11.474 11.762 20.041 0 3.67-0.861 7.139-2.393 10.215l0.060-0.133c-3.565 7.094-10.785 11.877-19.123 11.877-3.786 0-7.342-0.986-10.425-2.716l0.107 0.055zM752.427 836.181c77.017-44.253 139.214-106.45 182.211-181.103l1.255-2.364c1.601-2.921 2.542-6.401 2.542-10.1 0-8.24-4.672-15.389-11.512-18.943l-0.118-0.056c-2.917-1.452-6.354-2.302-9.99-2.302-8.481 0-15.883 4.626-19.818 11.492l-0.059 0.111c-39.966 68.698-95.637 124.26-162.312 162.958l-2.125 1.138c-6.996 3.99-11.637 11.401-11.637 19.896 0 3.628 0.846 7.058 2.352 10.104l-0.060-0.133c3.566 7.091 10.785 11.87 19.12 11.87 3.719 0 7.216-0.952 10.26-2.625l-0.111 0.056z" />
<glyph unicode="&#xe909;" glyph-name="align-bottom-1" d="M384.085 235.691v569.088c0.049 38.578 31.309 69.839 69.883 69.888h116.058c0.025 0 0.055 0 0.085 0 38.615 0 69.925-31.28 69.973-69.883v-569.093c-0.049-38.608-31.358-69.888-69.973-69.888-0.030 0-0.060 0-0.090 0h-116.048c-38.578 0.049-69.839 31.309-69.888 69.883v0.005zM895.019 21.333h-765.995c-0.294-0.014-0.64-0.021-0.987-0.021-12.607 0-22.827 10.22-22.827 22.827s10.22 22.827 22.827 22.827c0.347 0 0.692-0.008 1.035-0.023l-0.049 0.002h765.995c12.175-0.543 21.84-10.546 21.84-22.805s-9.665-22.262-21.791-22.804l-0.049-0.002z" />
<glyph unicode="&#xe90a;" glyph-name="align-bottom" d="M384.085 235.691v569.088c0.049 38.578 31.309 69.839 69.883 69.888h116.058c0.025 0 0.055 0 0.085 0 38.615 0 69.925-31.28 69.973-69.883v-569.093c-0.049-38.608-31.358-69.888-69.973-69.888-0.030 0-0.060 0-0.090 0h-116.048c-38.578 0.049-69.839 31.309-69.888 69.883v0.005zM594.304 804.779c-0.024 13.398-10.879 24.253-24.275 24.277h-116.055c-13.398-0.024-24.253-10.879-24.277-24.275v-569.090c0.024-13.398 10.879-24.253 24.275-24.277h116.055c13.398 0.024 24.253 10.879 24.277 24.275v0.002zM895.019 21.333h-765.995c-0.294-0.014-0.64-0.021-0.987-0.021-12.607 0-22.827 10.22-22.827 22.827s10.22 22.827 22.827 22.827c0.347 0 0.692-0.008 1.035-0.023l-0.049 0.002h765.995c12.175-0.543 21.84-10.546 21.84-22.805s-9.665-22.262-21.791-22.804l-0.049-0.002z" />
<glyph unicode="&#xe90b;" glyph-name="align-horizontal-center" d="M646.485 747.179v-598.315c-0.049-40.558-32.914-73.423-73.467-73.472h-122.032c-40.485 0.145-73.253 32.974-73.301 73.467v598.319c0.048 40.498 32.817 73.327 73.287 73.472h122.041c40.558-0.049 73.423-32.914 73.472-73.467v-0.005zM425.472 148.864c0-14.138 11.462-25.6 25.6-25.6v0h121.941c14.138 0 25.6 11.462 25.6 25.6v598.315c0 14.138-11.462 25.6-25.6 25.6v0h-122.027c-14.138 0-25.6-11.462-25.6-25.6v0zM598.528 448c0 13.243 10.736 23.979 23.979 23.979h292.181c13.243 0 23.979-10.736 23.979-23.979s-10.736-23.979-23.979-23.979v0h-292.181c-13.243 0-23.979 10.736-23.979 23.979v0zM85.333 448c0 13.243 10.736 23.979 23.979 23.979h292.181c13.243 0 23.979-10.736 23.979-23.979s-10.736-23.979-23.979-23.979v0h-292.181c-13.243 0-23.979 10.736-23.979 23.979v0z" />
<glyph unicode="&#xe90c;" glyph-name="align-horizontal-space-1" d="M646.485 747.179v-598.315c-0.049-40.558-32.914-73.423-73.467-73.472h-122.032c-40.485 0.145-73.253 32.974-73.301 73.467v598.319c0.048 40.498 32.817 73.327 73.287 73.472h122.041c40.558-0.049 73.423-32.914 73.472-73.467v-0.005zM598.528 448c0 13.243 10.736 23.979 23.979 23.979h292.181c13.243 0 23.979-10.736 23.979-23.979s-10.736-23.979-23.979-23.979v0h-292.181c-13.243 0-23.979 10.736-23.979 23.979v0zM85.333 448c0 13.243 10.736 23.979 23.979 23.979h292.181c13.243 0 23.979-10.736 23.979-23.979s-10.736-23.979-23.979-23.979v0h-292.181c-13.243 0-23.979 10.736-23.979 23.979v0z" />
<glyph unicode="&#xe90d;" glyph-name="align-horizontal-space-2" d="M377.515 148.821v598.315c0.049 40.558 32.914 73.423 73.467 73.472h122.032c40.485-0.145 73.253-32.974 73.301-73.467v-598.319c-0.048-40.498-32.817-73.327-73.287-73.472h-122.041c-40.558 0.049-73.423 32.914-73.472 73.467v0.005zM162.219 21.333c-13.243 0-23.979 10.736-23.979 23.979v805.376c0 13.243 10.736 23.979 23.979 23.979s23.979-10.736 23.979-23.979v0-805.376c0-13.243-10.736-23.979-23.979-23.979v0zM861.781 21.333c-13.243 0-23.979 10.736-23.979 23.979v805.376c0 13.243 10.736 23.979 23.979 23.979s23.979-10.736 23.979-23.979v0-805.376c0-13.243-10.736-23.979-23.979-23.979v0z" />
<glyph unicode="&#xe90e;" glyph-name="align-horizontal-space" d="M377.515 148.821v598.315c0.049 40.558 32.914 73.423 73.467 73.472h122.032c40.485-0.145 73.253-32.974 73.301-73.467v-598.319c-0.048-40.498-32.817-73.327-73.287-73.472h-122.041c-40.558 0.049-73.423 32.914-73.472 73.467v0.005zM598.528 747.136c0 14.138-11.462 25.6-25.6 25.6v0h-121.941c-14.138 0-25.6-11.462-25.6-25.6v-598.315c0-14.138 11.462-25.6 25.6-25.6v0h122.027c14.138 0 25.6 11.462 25.6 25.6v0zM162.219 21.333c-13.243 0-23.979 10.736-23.979 23.979v805.376c0 13.243 10.736 23.979 23.979 23.979s23.979-10.736 23.979-23.979v0-805.376c0-13.243-10.736-23.979-23.979-23.979v0zM861.781 21.333c-13.243 0-23.979 10.736-23.979 23.979v805.376c0 13.243 10.736 23.979 23.979 23.979s23.979-10.736 23.979-23.979v0-805.376c0-13.243-10.736-23.979-23.979-23.979v0z" />
<glyph unicode="&#xe90f;" glyph-name="align-left-1" d="M299.691 575.915h569.088c38.578-0.049 69.839-31.309 69.888-69.883v-116.058c0-0.025 0-0.055 0-0.085 0-38.615-31.28-69.925-69.883-69.973h-569.093c-38.608 0.049-69.888 31.358-69.888 69.973 0 0.030 0 0.060 0 0.090v-0.005 116.053c0.049 38.578 31.309 69.839 69.883 69.888h0.005zM108.16 42.155c-12.607 0-22.827 10.22-22.827 22.827v0 765.995c-0.014 0.294-0.021 0.64-0.021 0.987 0 12.607 10.22 22.827 22.827 22.827s22.827-10.22 22.827-22.827c0-0.347-0.008-0.692-0.023-1.035l0.002 0.049v-765.995c0 0 0 0 0 0 0-12.592-10.196-22.802-22.782-22.827h-0.002z" />
<glyph unicode="&#xe910;" glyph-name="align-left" d="M299.691 575.915h569.088c38.578-0.049 69.839-31.309 69.888-69.883v-116.058c0-0.025 0-0.055 0-0.085 0-38.615-31.28-69.925-69.883-69.973h-569.093c-38.608 0.049-69.888 31.358-69.888 69.973 0 0.030 0 0.060 0 0.090v-0.005 116.053c0.049 38.578 31.309 69.839 69.883 69.888h0.005zM868.779 365.696c13.398 0.024 24.253 10.879 24.277 24.275v116.055c-0.024 13.398-10.879 24.253-24.275 24.277h-569.090c-13.398-0.024-24.253-10.879-24.277-24.275v-116.055c0.024-13.398 10.879-24.253 24.275-24.277h0.002zM108.16 42.155c-12.607 0-22.827 10.22-22.827 22.827v0 765.995c-0.014 0.294-0.021 0.64-0.021 0.987 0 12.607 10.22 22.827 22.827 22.827s22.827-10.22 22.827-22.827c0-0.347-0.008-0.692-0.023-1.035l0.002 0.049v-765.995c0 0 0 0 0 0 0-12.592-10.196-22.802-22.782-22.827h-0.002z" />
<glyph unicode="&#xe911;" glyph-name="align-right-1" d="M724.309 320.085h-569.088c-38.578 0.049-69.839 31.309-69.888 69.883v116.058c0 0.025 0 0.055 0 0.085 0 38.615 31.28 69.925 69.883 69.973h569.093c38.608-0.049 69.888-31.358 69.888-69.973 0-0.030 0-0.060 0-0.090v0.005-116.053c-0.049-38.578-31.309-69.839-69.883-69.888h-0.005zM915.883 42.155c-12.607 0-22.827 10.22-22.827 22.827v0 765.995c0.543 12.175 10.546 21.84 22.805 21.84s22.262-9.665 22.804-21.791l0.002-0.049v-765.995c0 0 0 0 0 0 0-12.592-10.196-22.802-22.782-22.827h-0.002z" />
<glyph unicode="&#xe912;" glyph-name="align-right" d="M724.309 320.085h-569.088c-38.578 0.049-69.839 31.309-69.888 69.883v116.058c0 0.025 0 0.055 0 0.085 0 38.615 31.28 69.925 69.883 69.973h569.093c38.608-0.049 69.888-31.358 69.888-69.973 0-0.030 0-0.060 0-0.090v0.005-116.053c-0.049-38.578-31.309-69.839-69.883-69.888h-0.005zM155.221 530.304c-13.398-0.024-24.253-10.879-24.277-24.275v-116.055c0.024-13.398 10.879-24.253 24.275-24.277h569.090c13.398 0.024 24.253 10.879 24.277 24.275v116.055c-0.024 13.398-10.879 24.253-24.275 24.277h-0.002zM915.883 42.155c-12.607 0-22.827 10.22-22.827 22.827v0 765.995c0.543 12.175 10.546 21.84 22.805 21.84s22.262-9.665 22.804-21.791l0.002-0.049v-765.995c0 0 0 0 0 0 0-12.592-10.196-22.802-22.782-22.827h-0.002z" />
<glyph unicode="&#xe913;" glyph-name="align-top_1" d="M639.915 660.309v-569.088c-0.049-38.578-31.309-69.839-69.883-69.888h-116.058c-0.025 0-0.055 0-0.085 0-38.615 0-69.925 31.28-69.973 69.883v569.093c0.049 38.608 31.358 69.888 69.973 69.888 0.030 0 0.060 0 0.090 0h116.048c38.578-0.049 69.839-31.309 69.888-69.883v-0.005zM895.019 829.056h-765.995c-0.294-0.014-0.64-0.021-0.987-0.021-12.607 0-22.827 10.22-22.827 22.827s10.22 22.827 22.827 22.827c0.347 0 0.692-0.008 1.035-0.023l-0.049 0.002h765.995c12.175-0.543 21.84-10.546 21.84-22.805s-9.665-22.262-21.791-22.804l-0.049-0.002z" />
<glyph unicode="&#xe914;" glyph-name="align-top" d="M639.915 660.309v-569.088c-0.049-38.578-31.309-69.839-69.883-69.888h-116.058c-0.025 0-0.055 0-0.085 0-38.615 0-69.925 31.28-69.973 69.883v569.093c0.049 38.608 31.358 69.888 69.973 69.888 0.030 0 0.060 0 0.090 0h116.048c38.578-0.049 69.839-31.309 69.888-69.883v-0.005zM429.696 91.221c0.024-13.398 10.879-24.253 24.275-24.277h116.055c13.398 0.024 24.253 10.879 24.277 24.275v569.090c-0.024 13.398-10.879 24.253-24.275 24.277h-116.055c-13.398-0.024-24.253-10.879-24.277-24.275v-0.002zM895.019 829.056h-765.995c-0.294-0.014-0.64-0.021-0.987-0.021-12.607 0-22.827 10.22-22.827 22.827s10.22 22.827 22.827 22.827c0.347 0 0.692-0.008 1.035-0.023l-0.049 0.002h765.995c12.175-0.543 21.84-10.546 21.84-22.805s-9.665-22.262-21.791-22.804l-0.049-0.002z" />
<glyph unicode="&#xe915;" glyph-name="align-vertical-center-1" d="M212.821 582.485h598.315c40.558-0.049 73.423-32.914 73.472-73.467v-122.032c-0.145-40.485-32.974-73.253-73.467-73.301h-598.319c-40.498 0.048-73.327 32.817-73.472 73.287v122.041c0.049 40.558 32.914 73.423 73.467 73.472h0.005zM512 534.528c-13.243 0-23.979 10.736-23.979 23.979v292.181c0 13.243 10.736 23.979 23.979 23.979s23.979-10.736 23.979-23.979v0-292.181c0-13.243-10.736-23.979-23.979-23.979v0zM512 21.333c-13.243 0-23.979 10.736-23.979 23.979v292.181c0 13.243 10.736 23.979 23.979 23.979s23.979-10.736 23.979-23.979v0-292.181c0-13.243-10.736-23.979-23.979-23.979v0z" />
<glyph unicode="&#xe916;" glyph-name="align-vertical-center" d="M212.821 582.485h598.315c40.558-0.049 73.423-32.914 73.472-73.467v-122.032c-0.145-40.485-32.974-73.253-73.467-73.301h-598.319c-40.498 0.048-73.327 32.817-73.472 73.287v122.041c0.049 40.558 32.914 73.423 73.467 73.472h0.005zM811.136 361.472c14.138 0 25.6 11.462 25.6 25.6v0 121.941c0 14.138-11.462 25.6-25.6 25.6h-598.315c-14.138 0-25.6-11.462-25.6-25.6v0-122.027c0-14.138 11.462-25.6 25.6-25.6v0zM512 534.528c-13.243 0-23.979 10.736-23.979 23.979v292.181c0 13.243 10.736 23.979 23.979 23.979s23.979-10.736 23.979-23.979v0-292.181c0-13.243-10.736-23.979-23.979-23.979v0zM512 21.333c-13.243 0-23.979 10.736-23.979 23.979v292.181c0 13.243 10.736 23.979 23.979 23.979s23.979-10.736 23.979-23.979v0-292.181c0-13.243-10.736-23.979-23.979-23.979v0z" />
<glyph unicode="&#xe917;" glyph-name="align-vertical-space-1" d="M212.821 582.485h598.315c40.558-0.049 73.423-32.914 73.472-73.467v-122.032c-0.145-40.485-32.974-73.253-73.467-73.301h-598.319c-40.498 0.048-73.327 32.817-73.472 73.287v122.041c0.049 40.558 32.914 73.423 73.467 73.472h0.005zM85.333 781.269c0 13.243 10.736 23.979 23.979 23.979h805.376c13.243 0 23.979-10.736 23.979-23.979s-10.736-23.979-23.979-23.979v0h-805.376c-13.243 0-23.979 10.736-23.979 23.979v0zM85.333 114.688c0 13.243 10.736 23.979 23.979 23.979h805.376c13.243 0 23.979-10.736 23.979-23.979s-10.736-23.979-23.979-23.979v0h-805.376c-13.243 0-23.979 10.736-23.979 23.979v0z" />
<glyph unicode="&#xe918;" glyph-name="align-vertical-space" d="M212.821 582.485h598.315c40.558-0.049 73.423-32.914 73.472-73.467v-122.032c-0.145-40.485-32.974-73.253-73.467-73.301h-598.319c-40.498 0.048-73.327 32.817-73.472 73.287v122.041c0.049 40.558 32.914 73.423 73.467 73.472h0.005zM811.136 361.472c14.138 0 25.6 11.462 25.6 25.6v0 121.941c0 14.138-11.462 25.6-25.6 25.6h-598.315c-14.138 0-25.6-11.462-25.6-25.6v0-122.027c0-14.138 11.462-25.6 25.6-25.6v0zM85.333 781.269c0 13.243 10.736 23.979 23.979 23.979h805.376c13.243 0 23.979-10.736 23.979-23.979s-10.736-23.979-23.979-23.979v0h-805.376c-13.243 0-23.979 10.736-23.979 23.979v0zM85.333 114.688c0 13.243 10.736 23.979 23.979 23.979h805.376c13.243 0 23.979-10.736 23.979-23.979s-10.736-23.979-23.979-23.979v0h-805.376c-13.243 0-23.979 10.736-23.979 23.979v0z" />
<glyph unicode="&#xe919;" glyph-name="alpha" d="M512 21.333c-235.641 0-426.667 191.025-426.667 426.667s191.025 426.667 426.667 426.667c235.641 0 426.667-191.025 426.667-426.667v0-22.443c0.084-2.188 0.132-4.757 0.132-7.337 0-45.742-15.077-87.962-40.534-121.962l0.38 0.531c-22.159-28.089-54.078-47.621-90.566-53.48l-0.826-0.109c-6.074-0.95-13.079-1.493-20.211-1.493-0.005 0-0.009 0-0.014 0h0.001c-0.346-0.004-0.755-0.005-1.165-0.005-27.296 0-52.52 8.869-72.949 23.883l0.342-0.24c-19.571 14.757-33.834 35.634-39.987 59.753l-0.162 0.748c-37.285-48.893-95.569-80.125-161.147-80.125-111.623 0-202.112 90.489-202.112 202.112s90.489 202.112 202.112 202.112c63.314 0 119.829-29.113 156.887-74.682l0.292-0.371v52.779c0.539 11.99 10.39 21.506 22.464 21.506s21.925-9.516 22.462-21.458l0.002-0.048v-269.483c-0.060-1.061-0.094-2.303-0.094-3.553 0-21.586 10.185-40.794 26.011-53.080l0.152-0.114c12.642-9.182 28.471-14.689 45.586-14.689 0.474 0 0.947 0.004 1.418 0.013l-0.071-0.001c4.82 0.002 9.551 0.374 14.169 1.090l-0.516-0.066c68.779 10.283 93.184 80.64 93.184 137.813v22.4c0 210.828-170.91 381.739-381.739 381.739s-381.739-170.91-381.739-381.739c0-210.768 170.813-381.641 381.559-381.739h0.009c0.34-0.001 0.743-0.002 1.146-0.002 61.405 0 119.389 14.644 170.652 40.63l-2.155-0.991c2.919 1.488 6.366 2.359 10.017 2.359 8.762 0 16.351-5.021 20.047-12.343l0.059-0.129c1.464-2.906 2.322-6.333 2.322-9.961 0-8.779-5.021-16.385-12.348-20.102l-0.128-0.059c-54.923-27.955-119.773-44.332-188.449-44.332-0.409 0-0.817 0.001-1.225 0.002h0.064zM512 605.184c-86.81 0-157.184-70.374-157.184-157.184s70.374-157.184 157.184-157.184c86.81 0 157.184 70.374 157.184 157.184v0c-0.121 86.761-70.423 157.063-157.172 157.184h-0.012z" />
<glyph unicode="&#xe91a;" glyph-name="analysis1" d="M184.149 577.664c1.894-0.862 4.107-1.364 6.437-1.364 6.515 0 12.112 3.925 14.558 9.539l0.040 0.102c52.769 119.491 170.23 201.374 306.816 201.374s254.047-81.883 305.972-199.238l0.844-2.136c2.498-5.719 8.104-9.643 14.627-9.643 0.018 0 0.036 0 0.053 0h-0.003c0.016 0 0.035 0 0.054 0 2.285 0 4.452 0.503 6.398 1.405l-0.094-0.039c5.815 2.483 9.816 8.152 9.816 14.757 0 2.268-0.472 4.426-1.323 6.381l0.040-0.103c-57.82 130.92-186.519 220.634-336.171 220.634s-278.35-89.714-335.246-218.293l-0.925-2.341c-0.853-1.894-1.35-4.106-1.35-6.434 0-6.467 3.836-12.037 9.357-14.56l0.1-0.041zM839.851 327.979c-1.871 0.828-4.053 1.309-6.348 1.309-6.524 0-12.139-3.894-14.646-9.485l-0.041-0.102c-52.769-119.491-170.23-201.374-306.816-201.374s-254.047 81.883-305.972 199.238l-0.844 2.136c-2.533 5.705-8.149 9.612-14.677 9.612-8.843 0-16.012-7.169-16.012-16.012 0-2.315 0.491-4.515 1.375-6.502l-0.040 0.102c57.371-130.864 185.782-220.622 335.156-220.622 83.413 0 160.289 27.989 221.748 75.088l-0.872-0.642 79.36-79.36c2.895-2.89 6.892-4.677 11.307-4.677 8.839 0 16.005 7.166 16.005 16.005 0 4.425-1.796 8.431-4.698 11.328v0l-76.8 76.8c38.272 34.516 69.035 76.555 90.080 123.872l0.928 2.336c0.825 1.866 1.306 4.042 1.306 6.33 0 6.482-3.855 12.064-9.397 14.578l-0.1 0.041zM936.789 465.579c-2.75 9.27-9.406 16.611-18.012 20.232l-0.207 0.077c-3.475 1.511-7.523 2.39-11.776 2.39s-8.301-0.879-11.972-2.465l0.196 0.075c-9.994-4.216-17.249-13.169-19.005-23.968l-0.024-0.181v-0.725h-100.821c-2.619 15.138-15.344 26.606-30.867 27.262l-0.067 0.002c-4.046-0.065-7.879-0.906-11.38-2.379l0.201 0.075c-11.626-4.428-19.844-15.247-20.392-28.053l-0.002-0.065c-0.095-0.312-0.185-0.701-0.249-1.098l-0.007-0.054-104.405-49.408c-5.355 8.503-14.508 14.191-25.019 14.675l-0.069 0.003c-0.427 0-0.811 0.256-1.237 0.256v0c-6.559-0.172-12.577-2.354-17.496-5.949l0.088 0.061-95.659 105.557c2.757 4.932 4.738 10.689 5.602 16.804l0.030 0.262c-0.014 13.766-8.824 25.472-21.112 29.799l-0.221 0.068c-3.138 1.29-6.776 2.081-10.586 2.175l-0.038 0.001c-17.32-0.721-31.175-14.591-31.87-31.85l-0.002-0.065c0.155-3.365 0.83-6.525 1.947-9.469l-0.070 0.21-110.933-66.688c-2.652 2.571-5.759 4.694-9.184 6.233l-0.203 0.081c-3.654 1.63-7.918 2.58-12.403 2.58-15.392 0-28.173-11.18-30.664-25.863l-0.026-0.183h-101.163c0 0.597-0.213 1.195-0.384 1.792-4.41 12.746-16.31 21.736-30.309 21.736-16.779 0-30.541-12.913-31.891-29.343l-0.008-0.115c0.17-3.46 0.86-6.707 1.993-9.737l-0.073 0.222c4.082-12.849 15.906-21.996 29.867-21.996s25.785 9.147 29.806 21.775l0.061 0.221c0.25 0.891 0.474 1.989 0.625 3.111l0.015 0.132h101.333c2.781-14.428 15.138-25.235 30.084-25.599l0.038-0.001h0.512c14.875 0.131 27.271 10.584 30.382 24.538l0.039 0.209c0.717 2.083 1.231 4.505 1.443 7.013l0.008 0.112c-0.197 1.48-0.465 2.78-0.817 4.046l0.049-0.206c-0.295 3.405-1.083 6.547-2.296 9.468l0.077-0.21 109.44 65.877c4.103-4.894 9.616-8.484 15.911-10.149l0.217-0.049c2.369-0.835 5.114-1.412 7.962-1.615l0.102-0.006c6.655 0.704 12.684 2.883 17.919 6.202l-0.169-0.1 95.573-105.387c-2.403-3.527-4.115-7.719-4.841-12.24l-0.023-0.176c-0.415-1.399-0.759-3.077-0.966-4.797l-0.015-0.152c0-17.602 14.27-31.872 31.872-31.872s31.872 14.27 31.872 31.872v0c-0.208 2.088-0.614 3.999-1.207 5.827l0.055-0.195 102.4 48.896c3.755-9.248 11.54-16.177 21.116-18.682l0.218-0.048c2.427-0.895 5.234-1.491 8.155-1.66l0.079-0.004c2.884 0.192 5.572 0.755 8.107 1.644l-0.213-0.065c11.106 2.911 19.656 11.546 22.397 22.485l0.045 0.214h101.845c0.299-1.109 0.299-2.304 0.683-3.371 3.569-9.306 11.19-16.352 20.643-19.061l0.221-0.054c2.606-1.135 5.642-1.796 8.832-1.796s6.226 0.661 8.978 1.853l-0.146-0.056c13.361 3.596 23.035 15.601 23.040 29.866v0.001c-0.043 3.311-0.617 6.474-1.642 9.426l0.063-0.21z" />
<glyph unicode="&#xe91b;" glyph-name="analysis" d="M204.416 568.32c2.503-1.116 5.424-1.765 8.497-1.765 8.718 0 16.214 5.229 19.524 12.722l0.054 0.136c48.084 108.817 155.068 183.38 279.467 183.38s231.383-74.563 278.698-181.435l0.769-1.945c3.377-7.598 10.857-12.8 19.552-12.8 0.011 0 0.022 0 0.033 0h-0.002c3.085 0.017 6.016 0.659 8.678 1.805l-0.145-0.055c7.61 3.372 12.823 10.858 12.823 19.562 0 3.079-0.652 6.005-1.826 8.648l0.054-0.136c-54.804 124.092-176.789 209.126-318.635 209.126s-263.831-85.035-317.759-206.908l-0.876-2.218c-1.125-2.513-1.781-5.446-1.781-8.533 0-8.724 5.236-16.225 12.737-19.531l0.137-0.054zM747.392 203.349c34.862 32.036 62.975 70.808 82.367 114.323l0.876 2.2c1.125 2.513 1.78 5.447 1.78 8.533 0 11.787-9.556 21.343-21.343 21.343-8.701 0-16.185-5.206-19.509-12.674l-0.054-0.136c-48.084-108.817-155.068-183.38-279.467-183.38s-231.383 74.563-278.698 181.435l-0.769 1.945c-3.377 7.603-10.862 12.809-19.563 12.809-11.787 0-21.343-9.556-21.343-21.343 0-3.087 0.655-6.020 1.834-8.669l-0.054 0.136c54.421-124.034 176.153-209.099 317.754-209.099 76.179 0 146.607 24.62 203.763 66.337l-0.983-0.684 93.483-93.44c3.86-3.859 9.193-6.246 15.083-6.246s11.222 2.387 15.083 6.246v0c3.859 3.86 6.246 9.193 6.246 15.083s-2.387 11.222-6.246 15.083v0zM904.064 504.235c-17.245-0.127-31.439-13.023-33.603-29.695l-0.018-0.171h-94.165c-2.036 16.918-16.304 29.903-33.606 29.903-15.775 0-29.029-10.796-32.775-25.402l-0.051-0.234-94.677 34.133c0.236 0.814 0.445 1.81 0.584 2.829l0.013 0.115c-0.673 18.581-15.898 33.388-34.581 33.388s-33.908-14.807-34.58-33.326l-0.002-0.061c0.068-5.307 1.336-10.303 3.545-14.748l-0.089 0.199-83.669-75.691c-6.138 5.962-14.525 9.638-23.771 9.638-14.090 0-26.187-8.538-31.398-20.722l-0.085-0.223-96.043 27.989c0.358 1.186 0.671 2.63 0.878 4.107l0.018 0.16c0 19.111-15.492 34.603-34.603 34.603v0c-16.581-0.156-30.324-12.11-33.248-27.864l-0.032-0.211h-94.933c-3.007 15.896-16.71 27.781-33.22 27.947h-0.018c-0.362 0.014-0.788 0.021-1.215 0.021-19.111 0-34.603-15.492-34.603-34.603s15.492-34.603 34.603-34.603c0.427 0 0.853 0.008 1.276 0.023l-0.061-0.002c16.551 0.173 30.266 12.1 33.205 27.821l0.033 0.211h94.933c2.779-16.027 16.582-28.060 33.194-28.060 12.724 0 23.799 7.059 29.523 17.475l0.088 0.175 97.451-28.416c0-0.256 0-0.469 0-0.725-0.002-0.122-0.002-0.267-0.002-0.412 0-19.111 15.492-34.603 34.603-34.603s34.603 15.492 34.603 34.603c0 5.307-1.195 10.335-3.33 14.83l0.090-0.21 83.755 75.776c6.048-5.756 14.25-9.297 23.278-9.297 13.223 0 24.671 7.594 30.223 18.659l0.089 0.195 97.536-35.371c2.14-16.789 16.337-29.637 33.536-29.637 16.056 0 29.496 11.198 32.938 26.21l0.044 0.227 95.573-0.213c3.685-15.042 16.985-26.052 32.88-26.197h0.016c19.099 0 34.581 15.483 34.581 34.581s-15.483 34.581-34.581 34.581v0z" />
<glyph unicode="&#xe91c;" glyph-name="arrow-1" d="M836.608 874.624v0c35.441-0.2 66.584-18.419 84.755-45.954l0.237-0.382c10.604-15.649 16.929-34.949 16.929-55.726 0-14.523-3.090-28.325-8.65-40.783l0.254 0.636-274.475-648.533c-15.891-37.060-52.062-62.547-94.185-62.547-45.889 0-84.713 30.248-97.622 71.893l-0.193 0.724-62.72 206.080c-5.579 17.994-19.467 31.882-37.063 37.355l-0.398 0.107-205.611 62.507c-42.369 13.102-72.617 51.926-72.617 97.815 0 42.124 25.488 78.294 61.883 93.931l0.665 0.254 648.533 274.475c11.833 5.152 25.617 8.149 40.102 8.149 0.062 0 0.123 0 0.185 0h-0.010zM561.92 67.243c0.275-0.005 0.599-0.008 0.924-0.008 22.872 0 42.464 14.050 50.614 33.99l0.132 0.365 274.475 648.533c2.99 6.522 4.733 14.15 4.733 22.184 0 11.371-3.492 21.927-9.461 30.653l0.12-0.186c-9.982 15.661-27.26 25.899-46.929 25.899-8.043 0-15.687-1.712-22.586-4.792l0.352 0.14-648.704-274.432c-20.337-8.783-34.312-28.666-34.312-51.814 0-25.223 16.594-46.571 39.46-53.722l0.399-0.107 206.080-62.72c32.668-10.129 57.881-35.343 67.817-67.288l0.194-0.723 62.72-206.080c6.956-23.246 28.152-39.898 53.237-39.898 0.259 0 0.517 0.002 0.776 0.005h-0.039z" />
<glyph unicode="&#xe91d;" glyph-name="arrow-2" d="M863.531 565.376l-594.517 274.432c-16.004 7.737-34.805 12.258-54.661 12.258-43.238 0-81.469-21.439-104.642-54.266l-0.27-0.403c-15.016-20.61-24.024-46.435-24.024-74.364 0-14.855 2.548-29.114 7.232-42.366l-0.274 0.89 64.256-192.555c1.871-5.434 3.517-11.986 4.635-18.716l0.101-0.74h444.757c11.9 0 21.547-9.647 21.547-21.547s-9.647-21.547-21.547-21.547v0h-444.928c-1.237-7.437-2.868-13.93-4.961-20.212l0.268 0.926-64.213-192.683c-4.419-12.372-6.972-26.644-6.972-41.512 0-27.933 9.014-53.761 24.291-74.734l-0.252 0.363c23.448-33.185 61.652-54.59 104.857-54.59 19.862 0 38.667 4.524 55.441 12.597l-0.767-0.333 594.517 274.432c44.679 20.989 75.060 65.613 75.060 117.333s-30.381 96.344-74.271 117l-0.789 0.334z" />
<glyph unicode="&#xe91e;" glyph-name="arrow-3" d="M836.608 874.624v0c35.441-0.2 66.584-18.419 84.755-45.954l0.237-0.382c10.604-15.649 16.929-34.949 16.929-55.726 0-14.523-3.090-28.325-8.65-40.783l0.254 0.636-274.475-648.533c-15.891-37.060-52.062-62.547-94.185-62.547-45.889 0-84.713 30.248-97.622 71.893l-0.193 0.724-62.72 206.080c-5.579 17.994-19.467 31.882-37.063 37.355l-0.398 0.107-205.611 62.507c-42.369 13.102-72.617 51.926-72.617 97.815 0 42.124 25.488 78.294 61.883 93.931l0.665 0.254 648.533 274.475c11.833 5.152 25.617 8.149 40.102 8.149 0.062 0 0.123 0 0.185 0h-0.010zM561.92 67.243c0.275-0.005 0.599-0.008 0.924-0.008 22.872 0 42.464 14.050 50.614 33.99l0.132 0.365 274.475 648.533c2.99 6.522 4.733 14.15 4.733 22.184 0 11.371-3.492 21.927-9.461 30.653l0.12-0.186c-9.982 15.661-27.26 25.899-46.929 25.899-8.043 0-15.687-1.712-22.586-4.792l0.352 0.14-648.704-274.432c-20.337-8.783-34.312-28.666-34.312-51.814 0-25.223 16.594-46.571 39.46-53.722l0.399-0.107 206.080-62.72c32.668-10.129 57.881-35.343 67.817-67.288l0.194-0.723 62.72-206.080c6.956-23.246 28.152-39.898 53.237-39.898 0.259 0 0.517 0.002 0.776 0.005h-0.039z" />
<glyph unicode="&#xe91f;" glyph-name="arrow-down-1" d="M917.333 831.957h-810.667c-11.782 0-21.333 9.551-21.333 21.333v0c0 11.782 9.551 21.333 21.333 21.333v0h810.667c11.782 0 21.333-9.551 21.333-21.333v0c0-11.782-9.551-21.333-21.333-21.333v0zM512.043 21.291c-5.795 0.001-11.051 2.312-14.895 6.063l0.004-0.004c-3.975 3.879-6.441 9.289-6.441 15.275 0 5.795 2.311 11.050 6.061 14.895l-0.004-0.004 145.067 148.992c3.879 3.975 9.289 6.441 15.275 6.441 5.795 0 11.050-2.311 14.895-6.061l-0.004 0.004c3.975-3.879 6.441-9.289 6.441-15.275 0-5.795-2.311-11.050-6.061-14.895l0.004 0.004-145.067-148.992c-3.878-3.976-9.288-6.442-15.275-6.443v0zM512 21.291c-5.986 0.001-11.396 2.467-15.27 6.438l-0.004 0.004-145.067 148.992c-3.746 3.84-6.057 9.096-6.057 14.891 0 5.986 2.465 11.396 6.436 15.27l0.004 0.004c3.84 3.746 9.096 6.057 14.891 6.057 5.986 0 11.396-2.465 15.27-6.436l0.004-0.004 145.067-148.992c3.746-3.84 6.057-9.096 6.057-14.891 0-11.781-9.55-21.332-21.331-21.333v0zM512.043 46.976c-11.782 0-21.333 9.551-21.333 21.333v0 628.693c0 11.782 9.551 21.333 21.333 21.333v0c11.782 0 21.333-9.551 21.333-21.333v0-628.693c0-11.782-9.551-21.333-21.333-21.333v0z" />
<glyph unicode="&#xe920;" glyph-name="arrow-down-2" d="M149.333 838.997h725.333c35.346 0 64-28.654 64-64v0c0-35.346-28.654-64-64-64v0h-725.333c-35.346 0-64 28.654-64 64v0c0 35.346 28.654 64 64 64v0zM364.117 248.363c0.011 0 0.025 0 0.038 0 5.882 0 11.207-2.38 15.066-6.23v0l148.693-148.693c3.859-3.86 6.246-9.193 6.246-15.083s-2.387-11.222-6.246-15.083v0c-3.86-3.859-9.193-6.246-15.083-6.246s-11.222 2.387-15.083 6.246l-148.736 148.693c-3.872 3.862-6.268 9.203-6.268 15.104 0 11.782 9.551 21.333 21.333 21.333 0.013 0 0.027 0 0.040 0h-0.002zM661.547 248.363c0.011 0 0.025 0 0.038 0 5.882 0 11.207-2.38 15.066-6.23v0c3.859-3.86 6.246-9.193 6.246-15.083s-2.387-11.222-6.246-15.083l-148.736-148.736c-3.86-3.859-9.193-6.246-15.083-6.246s-11.222 2.387-15.083 6.246v0c-3.859 3.86-6.246 9.193-6.246 15.083s2.387 11.222 6.246 15.083l148.693 148.736c3.859 3.849 9.184 6.229 15.066 6.229 0.013 0 0.027 0 0.040 0h-0.002zM512.811 576c11.782 0 21.333-9.551 21.333-21.333v0-450.688c0-11.782-9.551-21.333-21.333-21.333v0c-11.782 0-21.333 9.551-21.333 21.333v0 450.688c0 11.782 9.551 21.333 21.333 21.333v0z" />
<glyph unicode="&#xe921;" glyph-name="arrow-down" d="M512 874.667c-13.785 0-24.96-11.175-24.96-24.96v0-763.733l-281.984 281.941c-4.521 4.521-10.766 7.317-17.664 7.317-13.796 0-24.981-11.184-24.981-24.981 0-6.898 2.796-13.143 7.317-17.664l289.323-289.323c13.558-13.554 32.285-21.937 52.971-21.937s39.413 8.383 52.971 21.937v0l289.28 289.536c4.521 4.521 7.317 10.766 7.317 17.664 0 13.796-11.184 24.981-24.981 24.981-6.898 0-13.143-2.796-17.664-7.317l-282.027-282.027v763.605c0 0 0 0 0 0 0 13.77-11.151 24.936-24.915 24.96h-0.002z" />
<glyph unicode="&#xe922;" glyph-name="arrow-left-1" d="M893.312 44.459v807.083c0 11.782 9.551 21.333 21.333 21.333v0c11.782 0 21.333-9.551 21.333-21.333v0-807.083c0-11.782-9.551-21.333-21.333-21.333v0c-11.782 0-21.333 9.551-21.333 21.333v0zM87.125 490.795c0 0.011 0 0.025 0 0.038 0 5.882 2.38 11.207 6.23 15.066v0c3.86 3.859 9.193 6.246 15.083 6.246s11.222-2.387 15.083-6.246l146.773-146.773c3.859-3.86 6.246-9.193 6.246-15.083s-2.387-11.222-6.246-15.083v0c-3.86-3.859-9.193-6.246-15.083-6.246s-11.222 2.387-15.083 6.246l-146.773 146.731c-3.849 3.859-6.229 9.184-6.229 15.066 0 0.013 0 0.027 0 0.040v-0.002zM87.125 490.795c0 0.011 0 0.025 0 0.038 0 5.882 2.38 11.207 6.23 15.066v0l146.773 146.773c3.86 3.859 9.193 6.246 15.083 6.246s11.222-2.387 15.083-6.246v0c3.859-3.86 6.246-9.193 6.246-15.083s-2.387-11.222-6.246-15.083l-146.773-146.773c-3.862-3.872-9.203-6.268-15.104-6.268-11.782 0-21.333 9.551-21.333 21.333 0 0.013 0 0.027 0 0.040v-0.002zM112.427 490.795c0 11.782 9.551 21.333 21.333 21.333v0h619.307c11.782 0 21.333-9.551 21.333-21.333v0c0-11.782-9.551-21.333-21.333-21.333v0h-619.307c-11.782 0-21.333 9.551-21.333 21.333v0z" />
<glyph unicode="&#xe923;" glyph-name="arrow-left-2" d="M774.997 85.333v725.333c0 35.346 28.654 64 64 64v0c35.346 0 64-28.654 64-64v0-725.333c0-35.346-28.654-64-64-64v0c-35.346 0-64 28.654-64 64v0zM121.003 448.811c0 0.011 0 0.025 0 0.038 0 5.882 2.38 11.207 6.23 15.066v0c3.86 3.859 9.193 6.246 15.083 6.246s11.222-2.387 15.083-6.246l148.736-148.736c3.859-3.86 6.246-9.193 6.246-15.083s-2.387-11.222-6.246-15.083v0c-3.86-3.859-9.193-6.246-15.083-6.246s-11.222 2.387-15.083 6.246l-148.736 148.693c-3.849 3.859-6.229 9.184-6.229 15.066 0 0.013 0 0.027 0 0.040v-0.002zM121.003 448.811c0 0.011 0 0.025 0 0.038 0 5.882 2.38 11.207 6.23 15.066v0l148.693 148.693c3.86 3.859 9.193 6.246 15.083 6.246s11.222-2.387 15.083-6.246v0c3.859-3.86 6.246-9.193 6.246-15.083s-2.387-11.222-6.246-15.083l-148.693-148.736c-3.862-3.872-9.203-6.268-15.104-6.268-11.782 0-21.333 9.551-21.333 21.333 0 0.013 0 0.027 0 0.040v-0.002zM146.645 448.811c0 11.782 9.551 21.333 21.333 21.333v0h450.688c11.782 0 21.333-9.551 21.333-21.333v0c0-11.782-9.551-21.333-21.333-21.333v0h-450.688c-11.782 0-21.333 9.551-21.333 21.333v0z" />
<glyph unicode="&#xe924;" glyph-name="arrow-left-up" d="M583.637 779.008c0 11.476-9.303 20.779-20.779 20.779h-340.309c-0.013 0-0.028 0-0.043 0-34.404 0-62.293-27.89-62.293-62.293 0-0.015 0-0.030 0-0.045v0.002-340.309c-0.002-0.114-0.004-0.249-0.004-0.384 0-11.466 9.295-20.761 20.761-20.761 11.331 0 20.542 9.077 20.757 20.357v0.020c0.018 0.115 0.029 0.248 0.029 0.384s-0.011 0.269-0.031 0.398l0.002-0.014v331.776l625.067-625.067c3.718-3.534 8.757-5.707 14.304-5.707 11.476 0 20.779 9.303 20.779 20.779 0 5.558-2.182 10.606-5.736 14.334l-625.059 625.016h331.733c0 0 0 0 0 0 11.469 0 20.773 9.273 20.821 20.731v0.005z" />
<glyph unicode="&#xe925;" glyph-name="arrow-left" d="M431.915 105.728c-4.518-4.526-10.764-7.325-17.664-7.325s-13.146 2.8-17.664 7.325v0l-289.323 289.28c-13.554 13.558-21.937 32.285-21.937 52.971s8.383 39.413 21.937 52.971l289.536 289.365c4.588 5.083 11.199 8.264 18.554 8.264 13.785 0 24.96-11.175 24.96-24.96 0-7.418-3.236-14.081-8.374-18.652l-0.025-0.022-282.027-282.027h763.733c13.797 0 24.981-11.185 24.981-24.981s-11.185-24.981-24.981-24.981v0h-763.733l282.027-282.027c4.487-4.512 7.261-10.732 7.261-17.6s-2.774-13.088-7.262-17.601l0.001 0.001z" />
<glyph unicode="&#xe926;" glyph-name="arrow-right-1" d="M86.101 43.221v809.557c0 11.782 9.551 21.333 21.333 21.333v0c11.782 0 21.333-9.551 21.333-21.333v0-809.557c0-11.782-9.551-21.333-21.333-21.333v0c-11.782 0-21.333 9.551-21.333 21.333v0zM743.083 295.040c0 0.011 0 0.025 0 0.038 0 5.882 2.38 11.207 6.23 15.066v0l152.192 152.192c3.86 3.859 9.193 6.246 15.083 6.246s11.222-2.387 15.083-6.246v0c3.859-3.86 6.246-9.193 6.246-15.083s-2.387-11.222-6.246-15.083l-152.149-152.192c-3.862-3.872-9.203-6.268-15.104-6.268-11.782 0-21.333 9.551-21.333 21.333 0 0.013 0 0.027 0 0.040v-0.002zM743.083 599.424c0.001 5.901 2.398 11.242 6.271 15.103l0.001 0.001c3.86 3.859 9.193 6.246 15.083 6.246s11.222-2.387 15.083-6.246l152.192-152.192c3.859-3.86 6.246-9.193 6.246-15.083s-2.387-11.222-6.246-15.083v0c-3.86-3.859-9.193-6.246-15.083-6.246s-11.222 2.387-15.083 6.246l-152.192 152.149c-3.874 3.862-6.271 9.203-6.272 15.104v0zM226.944 447.232c0 11.782 9.551 21.333 21.333 21.333v0h642.091c11.782 0 21.333-9.551 21.333-21.333v0c0-11.782-9.551-21.333-21.333-21.333v0h-642.091c-11.782 0-21.333 9.551-21.333 21.333v0z" />
<glyph unicode="&#xe927;" glyph-name="arrow-right-2" d="M121.003 85.333v725.333c0 35.346 28.654 64 64 64v0c35.346 0 64-28.654 64-64v0-725.333c0-35.346-28.654-64-64-64v0c-35.346 0-64 28.654-64 64v0zM711.637 300.117c0 0.011 0 0.025 0 0.038 0 5.882 2.38 11.207 6.23 15.066v0l148.693 148.693c3.86 3.859 9.193 6.246 15.083 6.246s11.222-2.387 15.083-6.246v0c3.859-3.86 6.246-9.193 6.246-15.083s-2.387-11.222-6.246-15.083l-148.693-148.736c-3.862-3.872-9.203-6.268-15.104-6.268-11.782 0-21.333 9.551-21.333 21.333 0 0.013 0 0.027 0 0.040v-0.002zM711.637 597.547c0 0.011 0 0.025 0 0.038 0 5.882 2.38 11.207 6.23 15.066v0c3.86 3.859 9.193 6.246 15.083 6.246s11.222-2.387 15.083-6.246l148.736-148.736c3.859-3.86 6.246-9.193 6.246-15.083s-2.387-11.222-6.246-15.083v0c-3.86-3.859-9.193-6.246-15.083-6.246s-11.222 2.387-15.083 6.246l-148.736 148.693c-3.849 3.859-6.229 9.184-6.229 15.066 0 0.013 0 0.027 0 0.040v-0.002zM384 448.811c0 11.782 9.551 21.333 21.333 21.333v0h450.688c11.782 0 21.333-9.551 21.333-21.333v0c0-11.782-9.551-21.333-21.333-21.333v0h-450.688c-11.782 0-21.333 9.551-21.333 21.333v0z" />
<glyph unicode="&#xe928;" glyph-name="arrow-right-up" d="M438.827 779.008c0 11.476 9.303 20.779 20.779 20.779h340.309c34.404 0 62.293-27.89 62.293-62.293 0-0.015 0-0.030 0-0.045v0.002-340.309c0.002-0.114 0.004-0.249 0.004-0.384 0-11.466-9.295-20.761-20.761-20.761-11.331 0-20.542 9.077-20.757 20.357v0.020c-0.018 0.115-0.029 0.248-0.029 0.384s0.011 0.269 0.031 0.398l-0.002-0.014v331.776l-625.067-625.067c-3.792-3.979-9.132-6.453-15.050-6.453-11.476 0-20.779 9.303-20.779 20.779 0 5.929 2.483 11.277 6.466 15.063l0.009 0.008 625.067 625.024h-331.733c0 0 0 0 0 0-11.469 0-20.773 9.273-20.821 20.731v0.005z" />
<glyph unicode="&#xe929;" glyph-name="arrow-right" d="M592.085 105.728c4.518-4.526 10.764-7.325 17.664-7.325s13.146 2.8 17.664 7.325v0l289.323 289.323c13.554 13.558 21.937 32.285 21.937 52.971s-8.383 39.413-21.937 52.971v0l-289.536 289.323c-4.588 5.083-11.199 8.264-18.554 8.264-13.785 0-24.96-11.175-24.96-24.96 0-7.418 3.236-14.081 8.374-18.652l0.025-0.022 282.027-282.027h-763.819c-13.797 0-24.981-11.185-24.981-24.981s11.185-24.981 24.981-24.981v0h763.733l-282.027-282.027c-4.462-4.507-7.219-10.71-7.219-17.557 0-6.889 2.791-13.127 7.304-17.643v0z" />
<glyph unicode="&#xe92a;" glyph-name="arrow-up-1" d="M914.944 25.387h-807.168c-11.782 0-21.333 9.551-21.333 21.333v0c0 11.782 9.551 21.333 21.333 21.333v0h807.168c11.782 0 21.333-9.551 21.333-21.333v0c0-11.782-9.551-21.333-21.333-21.333v0zM659.627 682.581c-0.011 0-0.025 0-0.038 0-5.882 0-11.207 2.38-15.066 6.23v0l-148.267 148.267c-3.859 3.86-6.246 9.193-6.246 15.083s2.387 11.222 6.246 15.083v0c3.86 3.859 9.193 6.246 15.083 6.246s11.222-2.387 15.083-6.246l148.309-148.267c3.872-3.862 6.268-9.203 6.268-15.104 0-11.782-9.551-21.333-21.333-21.333-0.013 0-0.027 0-0.040 0h0.002zM363.093 682.581c-0.011 0-0.025 0-0.038 0-5.882 0-11.207 2.38-15.066 6.23v0c-3.859 3.86-6.246 9.193-6.246 15.083s2.387 11.222 6.246 15.083l148.309 148.309c3.86 3.859 9.193 6.246 15.083 6.246s11.222-2.387 15.083-6.246v0c3.859-3.86 6.246-9.193 6.246-15.083s-2.387-11.222-6.246-15.083l-148.267-148.309c-3.859-3.849-9.184-6.229-15.066-6.229-0.013 0-0.027 0-0.040 0h0.002zM511.36 179.712c-11.782 0-21.333 9.551-21.333 21.333v0 625.579c0 11.782 9.551 21.333 21.333 21.333v0c11.782 0 21.333-9.551 21.333-21.333v0-625.579c0-11.782-9.551-21.333-21.333-21.333v0z" />
<glyph unicode="&#xe92b;" glyph-name="arrow-up-2" d="M874.667 57.003h-725.333c-35.346 0-64 28.654-64 64v0c0 35.346 28.654 64 64 64v0h725.333c35.346 0 64-28.654 64-64v0c0-35.346-28.654-64-64-64v0zM659.883 647.637c-0.011 0-0.025 0-0.038 0-5.882 0-11.207 2.38-15.066 6.23v0l-148.693 148.693c-3.859 3.86-6.246 9.193-6.246 15.083s2.387 11.222 6.246 15.083v0c3.86 3.859 9.193 6.246 15.083 6.246s11.222-2.387 15.083-6.246l148.736-148.693c3.872-3.862 6.268-9.203 6.268-15.104 0-11.782-9.551-21.333-21.333-21.333-0.013 0-0.027 0-0.040 0h0.002zM362.453 647.637c-0.011 0-0.025 0-0.038 0-5.882 0-11.207 2.38-15.066 6.23v0c-3.859 3.86-6.246 9.193-6.246 15.083s2.387 11.222 6.246 15.083l148.736 148.736c3.86 3.859 9.193 6.246 15.083 6.246s11.222-2.387 15.083-6.246v0c3.859-3.86 6.246-9.193 6.246-15.083s-2.387-11.222-6.246-15.083l-148.693-148.736c-3.859-3.849-9.184-6.229-15.066-6.229-0.013 0-0.027 0-0.040 0h0.002zM511.189 320c-11.782 0-21.333 9.551-21.333 21.333v0 450.688c0 11.782 9.551 21.333 21.333 21.333v0c11.782 0 21.333-9.551 21.333-21.333v0-450.688c0-11.782-9.551-21.333-21.333-21.333v0z" />
<glyph unicode="&#xe92c;" glyph-name="arrow-up" d="M168.789 528.085c-4.536 4.514-7.343 10.761-7.343 17.664s2.807 13.15 7.342 17.663l0.001 0.001 290.133 289.323c13.61 13.561 32.386 21.945 53.12 21.945s39.51-8.384 53.122-21.947l-0.002 0.002 290.133-289.323c4.513-4.524 7.304-10.768 7.304-17.664 0-13.813-11.198-25.011-25.011-25.011-6.917 0-13.178 2.808-17.706 7.346v0l-282.965 282.027v-763.733c0-13.832-11.213-25.045-25.045-25.045s-25.045 11.213-25.045 25.045v0 763.733l-282.709-282.027c-4.532-4.495-10.774-7.273-17.664-7.273s-13.132 2.778-17.666 7.274l0.002-0.002z" />
<glyph unicode="&#xe92d;" glyph-name="arrow" d="M214.4 43.947c-43.156 0.357-81.263 21.659-104.695 54.226l-0.265 0.387c-15.017 20.62-24.024 46.454-24.024 74.392 0 14.86 2.548 29.125 7.232 42.381l-0.274-0.89 64.256 192.725c4.178 12.2 6.591 26.256 6.591 40.875s-2.412 28.675-6.86 41.791l0.27-0.916-64.427 192.469c-4.409 12.366-6.958 26.631-6.958 41.491 0 27.938 9.008 53.772 24.277 74.757l-0.253-0.365c23.711 33.071 61.911 54.45 105.121 54.784h0.052c19.827-0.063 38.586-4.572 55.352-12.581l-0.781 0.336 594.56-274.432c44.679-20.989 75.060-65.613 75.060-117.333s-30.381-96.344-74.271-117l-0.789-0.334-594.56-274.475c-15.995-7.693-34.767-12.217-54.589-12.288h-0.024zM204.757 426.453c-1.565-12.345-4.183-23.481-7.824-34.142l0.357 1.203-64-192.725c-2.916-8.213-4.601-17.685-4.601-27.55 0-18.661 6.029-35.914 16.246-49.918l-0.168 0.241c15.632-22.12 41.1-36.387 69.9-36.387 13.248 0 25.791 3.019 36.979 8.407l-0.511-0.222 594.432 274.56c29.805 13.982 50.075 43.738 50.075 78.229s-20.271 64.248-49.548 78.007l-0.527 0.222-594.645 274.475c-10.67 5.159-23.206 8.174-36.445 8.174-28.814 0-54.293-14.281-69.743-36.152l-0.18-0.268c-10.052-13.759-16.084-31.010-16.084-49.669 0-9.869 1.687-19.343 4.788-28.151l-0.182 0.593 64-192.725c3.281-9.456 5.899-20.592 7.377-32.084l0.090-0.855h396.117c11.9 0 21.547-9.647 21.547-21.547s-9.647-21.547-21.547-21.547v0z" />
<glyph unicode="&#xe92e;" glyph-name="back-off" d="M792.149 826.368v0c80.91-0.097 146.469-65.686 146.517-146.598v-463.62c-0.097-80.88-65.637-146.42-146.508-146.517h-0.009c-27.302 0.006-52.827 7.604-74.582 20.798l0.641-0.361-394.197 231.851c-43.46 25.9-72.12 72.654-72.12 126.101s28.66 100.201 71.45 125.731l0.67 0.37 394.197 231.851c21.102 12.812 46.609 20.395 73.888 20.395 0.019 0 0.037 0 0.056 0h-0.003zM792.149 118.485c26.38 0.171 50.289 10.609 67.962 27.512l-0.037-0.035c18.416 17.559 29.868 42.282 29.868 69.68 0 0.178 0 0.356-0.001 0.534v-0.028 463.616c-0.073 53.924-43.779 97.616-97.702 97.664h-0.005c-18.195-0.001-35.207-5.062-49.708-13.851l0.428 0.241-394.155-231.851c-28.96-17.27-48.056-48.431-48.056-84.053s19.096-66.784 47.61-83.807l0.446-0.247 394.155-231.765c14.079-8.482 31.060-13.531 49.215-13.611h0.023zM85.333 106.667v682.667c0 13.467 10.917 24.384 24.384 24.384s24.384-10.917 24.384-24.384v0-682.667c0-13.467-10.917-24.384-24.384-24.384s-24.384 10.917-24.384 24.384v0z" />
<glyph unicode="&#xe92f;" glyph-name="background-color-1" d="M512 20.565c-188.915 0.194-342.011 153.276-342.229 342.166v0.020c-0.002 0.419-0.003 0.916-0.003 1.413 0 80.814 28.307 155.016 75.548 213.232l-0.494-0.629 18.389 24.533 163.627 211.456 28.8 35.712c13.341 16.507 33.587 26.975 56.277 26.975s42.936-10.468 56.17-26.839l0.107-0.137 4.267-5.376 6.101-7.509 199.893-257.963 9.429-12.416c5.504-7.467 10.795-15.36 15.787-23.467 31.71-50.922 50.51-112.738 50.51-178.944 0-188.991-153.193-342.201-342.177-342.229h-0.003zM512 832.768c-9.399-0.048-17.764-4.429-23.207-11.247l-0.046-0.060c-5.931-7.211-12.075-14.805-17.365-21.333l-35.797-44.885c-6.016-7.595-12.032-15.275-17.963-22.869l-35.2-45.227-40.192-52.352-71.68-94.549c-36.33-48.993-58.155-110.639-58.155-177.384 0-165.467 134.138-299.605 299.605-299.605 165.429 0 299.543 134.075 299.605 299.49v0.006c0.001 0.297 0.002 0.649 0.002 1.001 0 70.815-24.833 135.829-66.266 186.81l0.43-0.546-1.536 2.048-1.408 2.091-27.989 37.163-73.003 95.616-35.243 45.269-36.096 45.653c-11.477 14.421-23.339 29.099-35.2 43.648-5.527 6.844-13.896 11.202-23.286 11.264h-0.010z" />
<glyph unicode="&#xe930;" glyph-name="background-color" d="M417.28 60.459l-292.864 293.163c-24.143 24.182-39.073 57.569-39.073 94.443s14.93 70.26 39.075 94.444l91.518 91.604h-104.405c-0.013 0-0.028 0-0.043 0-12.253 0-22.187 9.933-22.187 22.187 0 0.015 0 0.030 0 0.045v-0.002c0 12.277 9.952 22.229 22.229 22.229h148.864l156.885 157.013c24.127 24.159 57.476 39.104 94.315 39.104s70.187-14.945 94.313-39.103l292.865-293.121c22.644-22.618 37.185-53.343 38.899-87.449l0.013-0.316c0.649-1.985 1.024-4.27 1.024-6.643 0-0.005 0-0.009 0-0.014v0.001-338.603c0-12.277-9.952-22.229-22.229-22.229v0c-12.267 0.024-22.205 9.962-22.229 22.227v239.618l-288.341-288.597c-24.064-24.169-57.365-39.125-94.159-39.125-0.047 0-0.094 0-0.142 0h0.007c-0.053 0-0.115 0-0.177 0-36.794 0-70.095 14.956-94.154 39.121l-0.005 0.005zM155.904 510.976c-16.088-16.122-26.036-38.377-26.036-62.955s9.948-46.832 26.037-62.956l-0.002 0.002 292.821-293.12c16.093-16.101 38.329-26.060 62.891-26.060s46.798 9.959 62.89 26.060l292.864 293.12c16.067 16.132 26 38.383 26 62.955s-9.933 46.823-26.003 62.958l0.003-0.003-292.864 293.163c-16.102 16.080-38.335 26.025-62.891 26.025s-46.789-9.944-62.892-26.026l0.001 0.001-125.397-125.568h197.888c0 0 0 0 0 0 12.285 0 22.248-9.947 22.272-22.227v-0.002c0 0 0 0 0 0 0-12.277-9.952-22.229-22.229-22.229-0.015 0-0.030 0-0.045 0h-242.345z" />
<glyph unicode="&#xe931;" glyph-name="blog-1" d="M835.968 347.52c0.003 0.335 0.005 0.731 0.005 1.127 0 23.457-6.975 45.285-18.964 63.524l0.27-0.438c-11.209 17.769-25.658 32.463-42.641 43.615l-0.538 0.332c-13.689 8.639-29.447 16.177-46.084 21.809l-1.575 0.463c5.442 12.228 8.612 26.496 8.612 41.504 0 18.666-4.902 36.187-13.49 51.345l0.27-0.518-2.688 3.797c-18.877 21.659-46.512 35.269-77.325 35.269-3.225 0-6.415-0.149-9.564-0.441l0.404 0.030c-37.3-1.273-72.444-8.992-104.849-22.070l2.065 0.736c2.612 8.35 4.116 17.951 4.116 27.903 0 24.856-9.384 47.519-24.801 64.642l0.077-0.087c-28.928 28.885-74.24 31.616-135.381 7.893-63.116-26.764-116.776-64.392-161.042-111.025l-0.195-0.207c-36.040-34.978-66.957-74.948-91.702-118.859l-1.354-2.613c-20.345-34.988-32.852-76.767-34.125-121.36l-0.008-0.368c-0.001-0.169-0.001-0.368-0.001-0.568 0-38.555 12.602-74.166 33.911-102.94l-0.331 0.469c22.404-30.725 50.681-55.772 83.341-73.873l1.309-0.666c32.772-18.375 70.713-33.486 110.714-43.371l3.164-0.661c38.63-10.056 82.978-15.829 128.674-15.829 0.033 0 0.066 0 0.099 0h-0.005c0.981 0 1.877 0 2.816 0 0.028 0 0.060 0 0.093 0 44.439 0 87.635 5.319 128.988 15.356l-3.726-0.764c40.753 9.315 76.669 22.863 110.060 40.546l-2.412-1.165c30.569 16.352 56.944 34.969 80.75 56.388l-0.366-0.324c21.628 19.028 39.674 41.497 53.421 66.651l0.638 1.275c11.713 21.144 18.824 46.27 19.368 73.008l0.003 0.165-21.888 0.384zM606.379 342.272c0.034-0.918 0.054-1.996 0.054-3.079 0-30.835-15.779-57.985-39.703-73.815l-0.329-0.205c-34.061-26.605-76.601-43.851-122.989-47.231l-0.744-0.044c-8.086-0.904-17.461-1.419-26.957-1.419-23.412 0-46.092 3.134-67.643 9.005l1.8-0.418c-26.021 6.589-48.589 18.827-67.235 35.385l0.163-0.142c-13.549 11.641-22.715 28.048-24.885 46.594l-0.032 0.339c-0.060 1.218-0.094 2.645-0.094 4.079 0 30.857 15.756 58.034 39.661 73.925l0.327 0.204c34.061 26.605 76.601 43.851 122.989 47.231l0.744 0.044c8.131 0.922 17.556 1.448 27.103 1.448 23.348 0 45.961-3.144 67.44-9.033l-1.786 0.417c26.055-6.542 48.658-18.772 67.32-35.342l-0.163 0.142c13.733-11.859 22.964-28.606 24.975-47.51l0.028-0.319zM802.859 506.325c-2.46 0.014-4.82 0.419-7.029 1.155l0.16-0.046c-8.63 2.958-14.722 11.002-14.722 20.468 0 2.447 0.407 4.798 1.157 6.99l-0.045-0.152c2.543 7.399 4.011 15.925 4.011 24.793 0 5.771-0.622 11.397-1.802 16.814l0.095-0.519c-3.022 14.938-9.8 27.961-19.305 38.47l0.062-0.070c-9.288 10.576-21.282 18.561-34.906 22.889l-0.55 0.151c-7.379 2.48-15.877 3.912-24.709 3.912-6.153 0-12.143-0.695-17.897-2.010l0.537 0.103c-1.533-0.389-3.293-0.612-5.105-0.612-11.923 0-21.589 9.666-21.589 21.589 0 10.439 7.408 19.147 17.254 21.154l0.139 0.024c8.010 1.836 17.208 2.888 26.652 2.888 13.447 0 26.396-2.133 38.526-6.080l-0.88 0.248c21.864-6.951 40.372-19.26 54.628-35.411l0.113-0.131c14.364-15.909 24.673-35.745 29.135-57.705l0.134-0.791c1.674-7.538 2.634-16.195 2.634-25.077 0-13.728-2.292-26.921-6.514-39.217l0.253 0.849c-2.981-8.594-10.998-14.657-20.435-14.677h-0.002zM906.325 475.349c-0.024 0-0.051 0-0.079 0-2.43 0-4.764 0.406-6.94 1.154l0.15-0.045c-8.63 2.958-14.722 11.002-14.722 20.468 0 2.447 0.407 4.798 1.157 6.99l-0.045-0.152c6.088 17.548 9.604 37.772 9.604 58.818 0 13.929-1.54 27.499-4.459 40.548l0.232-1.233c-7.118 35.472-23.19 66.4-45.757 91.343l0.146-0.164-8.021 8.917c-20.694 20.643-46.231 36.443-74.757 45.546l-1.317 0.363c-17.465 5.742-37.567 9.054-58.443 9.054-14.669 0-28.956-1.635-42.689-4.733l1.291 0.245c-1.391-0.319-2.989-0.502-4.629-0.502-11.93 0-21.601 9.671-21.601 21.601 0 10.289 7.194 18.898 16.827 21.071l0.144 0.027c15.2 3.484 32.656 5.481 50.577 5.481 25.521 0 50.097-4.049 73.12-11.54l-1.67 0.47c41.421-13.121 76.483-36.431 103.465-67.036l0.215-0.249 31.488-35.84h-5.205c13.278-21.659 23.375-46.892 28.844-73.806l0.255-1.5c3.264-14.432 5.135-31.006 5.135-48.017 0-25.935-4.348-50.855-12.355-74.070l0.479 1.596c-2.928-8.655-10.964-14.779-20.434-14.805h-0.003z" />
<glyph unicode="&#xe932;" glyph-name="blog" d="M433.664 290.475c-6.342-13.935-17.629-24.695-31.565-30.2l-0.392-0.136c-7.573-3.511-16.437-5.56-25.78-5.56-6.984 0-13.701 1.145-19.973 3.257l0.441-0.129c-13.463 3.711-24.225 13.076-29.75 25.312l-0.116 0.288c-2.391 5.179-3.785 11.238-3.785 17.624 0 7.437 1.892 14.433 5.22 20.532l-0.112-0.225c6.62 12.711 17.295 22.545 30.281 27.929l0.396 0.145c7.861 3.713 17.077 5.881 26.799 5.881 5.638 0 11.105-0.729 16.314-2.098l-0.446 0.1c13.954-3.109 25.39-11.986 31.875-23.94l0.125-0.252c3.094-5.711 4.913-12.502 4.913-19.719 0-6.857-1.642-13.33-4.554-19.047l0.11 0.238zM448 477.013c27.091-0.002 53.341-3.598 78.301-10.338l-2.098 0.482c32.987-8.322 61.609-23.775 85.295-44.69l-0.218 0.189c19.897-17.192 33.846-40.79 38.637-67.562l0.105-0.705 0.725-0.768 0.512-8.32c0.114-2.046 0.179-4.44 0.179-6.849 0-44.981-22.606-84.681-57.077-108.36l-0.445-0.289c-40.166-31.137-90.216-51.351-144.765-55.413l-0.899-0.054c-9.397-1.049-20.293-1.648-31.327-1.648-27.088 0-53.334 3.606-78.284 10.365l2.092-0.483c-32.992 8.348-61.614 23.829-85.292 44.773l0.215-0.186c-21.832 18.91-36.518 45.563-39.763 75.645l-0.045 0.515v1.109c-0.112 2.027-0.175 4.399-0.175 6.786 0 44.986 22.604 84.692 57.074 108.381l0.445 0.289c40.148 31.143 90.187 51.358 144.724 55.413l0.897 0.054c9.345 1.049 20.19 1.654 31.174 1.664h0.015zM605.867 341.803v0c-2.056 19.192-11.284 35.907-24.909 47.665l-0.094 0.079c-18.436 16.295-40.933 28.433-65.764 34.71l-1.095 0.234h-0.341c-19.585 5.375-42.073 8.464-65.283 8.464-9.498 0-18.874-0.517-28.104-1.525l1.141 0.101h-0.725c-46.847-3.401-89.135-20.521-123.515-47.314l0.507 0.381-1.237-0.896c-23.508-15.934-38.754-42.521-38.754-72.669 0-1.453 0.035-2.898 0.105-4.334l-0.008 0.202c2.195-18.988 11.376-35.496 24.867-47.153l0.093-0.079c18.421-16.306 40.903-28.458 65.721-34.751l1.095-0.235h0.384c19.589-5.377 42.081-8.467 65.295-8.467 9.508 0 18.896 0.518 28.135 1.528l-1.142-0.101h0.768c46.86 3.406 89.162 20.525 123.56 47.315l-0.509-0.382 1.237 0.896c23.449 15.942 38.65 42.495 38.65 72.599 0 1.312-0.029 2.618-0.086 3.916l0.006-0.185zM448.725 95.829h-2.859c-0.006 0-0.013 0-0.021 0-45.66 0-89.975 5.758-132.259 16.586l3.682-0.8c-43.122 10.556-81.018 25.637-116.109 45.151l2.36-1.204c-33.968 18.736-62.246 43.756-84.147 73.731l-0.504 0.723c-20.951 28.251-33.537 63.8-33.537 102.288 0 0.219 0 0.439 0.001 0.658v-0.034 0.597c1.381 44.641 13.877 86.084 34.795 122.021l-0.662-1.232c26.012 46.389 56.814 86.245 92.591 121.011l0.124 0.12c44.509 46.871 98.207 84.538 158.266 110.184l3.654 1.39c21.159 9.218 45.743 14.956 71.563 15.821l0.331 0.009c1.048 0.046 2.276 0.072 3.511 0.072 23.049 0 43.963-9.138 59.318-23.988l-0.024 0.023c15.34-17.013 24.725-39.656 24.725-64.491 0-9.945-1.505-19.539-4.299-28.566l0.182 0.684c30.128 12.21 65.017 19.915 101.523 21.316l0.579 0.018c3.115 0.299 6.315 0.427 9.429 0.427 30.89-0.007 58.6-13.618 77.466-35.166l0.102-0.119 1.536-1.749 1.109-2.048c8.283-14.616 13.164-32.102 13.164-50.728 0-14.997-3.164-29.254-8.862-42.142l0.263 0.667c18.176-6.069 33.907-13.594 48.494-22.77l-0.921 0.541 0.384-0.256c17.282-11.374 31.551-25.875 42.324-42.816l0.342-0.576c11.746-17.887 18.736-39.811 18.736-63.367 0-0.403-0.002-0.805-0.006-1.206v0.061-13.269l-0.896-0.469c-2.367-22.224-8.962-42.465-18.975-60.551l0.415 0.817c-14.352-26.339-32.339-48.735-53.62-67.48l-0.268-0.232c-23.441-21.071-49.816-39.675-78.237-54.966l-2.147-1.055c-30.902-16.467-66.732-29.984-104.397-38.712l-2.995-0.584c-37.296-9.111-80.114-14.337-124.153-14.337-0.377 0-0.755 0-1.132 0.001h0.058zM446.72 139.52h2.005c40.872 0.005 80.598 4.904 118.626 14.143l-3.426-0.703h0.256c36.653 8.389 68.953 20.572 98.987 36.463l-2.176-1.050c27.242 14.576 50.747 31.167 71.964 50.252l-0.327-0.289c17.77 15.634 32.597 34.094 43.892 54.761l0.524 1.047c8.528 15.33 13.711 33.555 14.121 52.954l0.002 0.123v3.883c-0.645 13.625-4.933 26.13-11.903 36.711l0.17-0.274-0.213 0.341c-7.639 12.051-17.442 22.030-28.948 29.64l-0.364 0.226c-11.863 7.472-25.53 13.847-39.995 18.428l-1.264 0.345h-0.341c-4.864 1.579-7.552 2.517-9.557 3.371l-0.64 0.299c-3.548 1.643-6.604 3.537-9.398 5.748l0.097-0.074c-6.738 4.91-11.066 12.774-11.066 21.649 0 2.937 0.474 5.763 1.35 8.406l-0.054-0.189c0.475 1.491 0.878 3.279 1.132 5.115l0.020 0.176 0.555 3.968 1.963 3.541c4.846 8.542 7.702 18.763 7.702 29.651 0 10.057-2.437 19.545-6.752 27.906l0.16-0.341c-10.826 11.461-26.126 18.596-43.092 18.603h-0.001c-1.92 0-3.883 0-5.845-0.299h-1.323c-37.54-1.39-72.665-10.32-104.365-25.309l1.624 0.691-1.152-0.555-3.925-1.28c-2.384-0.839-5.334-1.635-8.356-2.233l-0.433-0.071c-2.428-0.496-5.218-0.78-8.075-0.78-1.801 0-3.575 0.113-5.317 0.332l0.207-0.021c-9.661 1.14-17.701 7.139-21.689 15.451l-0.071 0.165-0.683 1.408-0.469 1.493c-0.961 3.066-1.515 6.592-1.515 10.247 0 4.409 0.806 8.631 2.278 12.525l-0.081-0.244c10.624 34.645 9.387 58.795-3.712 71.723-7.582 7.022-17.766 11.33-28.956 11.33-1.071 0-2.133-0.039-3.184-0.117l0.14 0.008c-20.369-0.981-39.411-5.594-56.846-13.204l1.038 0.404c-57.391-24.426-106.177-58.714-146.419-101.181l-0.184-0.195-0.64-0.64c-33.063-32.083-61.416-68.756-84.093-109.049l-1.24-2.397v-0.299c-16.814-28.755-27.211-63.090-28.407-99.751l-0.009-0.345c0-0.024 0-0.052 0-0.081 0-28.87 9.448-55.534 25.42-77.068l-0.247 0.349c18.58-25.479 42.042-46.242 69.142-61.23l1.087-0.551c29.713-16.614 64.113-30.29 100.373-39.249l2.88-0.602c35.479-9.233 76.211-14.539 118.18-14.549h0.006zM801.323 504.704c-0.004 0-0.008 0-0.013 0-12.065 0-21.845 9.78-21.845 21.845 0 2.473 0.411 4.849 1.168 7.066l-0.046-0.154c2.578 7.463 4.067 16.063 4.067 25.010 0 5.877-0.642 11.603-1.86 17.114l0.097-0.524v0.341c-3.060 15.040-9.896 28.148-19.475 38.725l0.062-0.069 0.427 0.555-0.469-0.427c-9.37 10.612-21.447 18.624-35.156 22.973l-0.556 0.152c-7.486 2.483-16.104 3.915-25.057 3.915-6.24 0-12.317-0.696-18.159-2.014l0.549 0.104c-1.493-0.364-3.207-0.573-4.97-0.573-12.065 0-21.845 9.78-21.845 21.845 0 10.501 7.409 19.272 17.286 21.369l0.143 0.025c8.113 1.865 17.428 2.934 26.994 2.934 13.616 0 26.726-2.166 39.004-6.171l-0.889 0.251c22.157-7.011 40.915-19.472 55.352-35.836l0.115-0.132c14.418-16.038 24.791-35.991 29.343-58.072l0.139-0.808c1.726-7.715 2.715-16.575 2.715-25.666 0-13.882-2.306-27.225-6.555-39.667l0.256 0.864c-2.97-8.773-11.129-14.976-20.737-14.976-0.030 0-0.059 0-0.089 0h0.005zM905.984 471.637c-12.056 0.042-21.813 9.826-21.813 21.888 0 2.473 0.41 4.849 1.166 7.066l-0.046-0.154c6.158 17.758 9.714 38.225 9.714 59.523 0 14.057-1.549 27.752-4.486 40.924l0.233-1.247v0.384c-7.262 35.756-23.504 66.921-46.27 92.069l0.147-0.165c-22.39 25.342-51.25 44.474-84.006 54.848l-1.327 0.363c-17.677 5.83-38.024 9.192-59.157 9.192-14.824 0-29.262-1.655-43.139-4.789l1.304 0.248c-1.417-0.327-3.044-0.515-4.715-0.515-12.066 0-21.848 9.782-21.848 21.848 0 10.396 7.26 19.095 16.987 21.305l0.146 0.028c15.408 3.545 33.102 5.577 51.27 5.577 25.809 0 50.659-4.1 73.937-11.684l-1.687 0.475c41.945-13.326 77.441-36.974 104.738-68.010l0.222-0.257c27.451-30.49 47.184-68.454 55.802-110.471l0.262-1.529c3.305-14.646 5.199-31.466 5.199-48.728 0-26.272-4.387-51.52-12.468-75.051l0.485 1.625c-3.031-8.657-11.128-14.756-20.65-14.763h-0.001z" />
<glyph unicode="&#xe933;" glyph-name="book" d="M512 86.485c-0.009 0-0.020 0-0.031 0-4.812 0-9.437 0.796-13.752 2.265l0.301-0.089-75.093 25.045c-24.12 8.331-51.916 13.141-80.836 13.141-0.051 0-0.102 0-0.154 0h-150.435c-58.91 0-106.667 47.756-106.667 106.667v0 469.333c0 58.91 47.756 106.667 106.667 106.667v0h213.333c0.006 0 0.013 0 0.019 0 44.322 0 83.382-22.527 106.356-56.756l0.291-0.46c23.265 34.689 62.325 57.216 106.647 57.216 0.007 0 0.014 0 0.021 0h213.332c58.91 0 106.667-47.756 106.667-106.667v0-469.333c0-58.91-47.756-106.667-106.667-106.667v0h-150.485c-0.068 0-0.15 0-0.231 0-28.92 0-56.715-4.811-82.631-13.675l1.796 0.534-75.093-25.045c-3.984-1.369-8.574-2.165-13.349-2.176h-0.005zM618.667 766.848c-47.128 0-85.333-38.205-85.333-85.333v0-544.597l0.256-0.597 53.504 17.835c28.145 9.737 60.582 15.36 94.332 15.36 0.031 0 0.063 0 0.094 0h150.481c35.346 0 64 28.654 64 64v0 469.333c0 35.346-28.654 64-64 64v0zM192 766.848c-35.346 0-64-28.654-64-64v0-469.333c0-35.346 28.654-64 64-64v0h150.443c0.064 0 0.141 0 0.217 0 33.703 0 66.096-5.607 96.297-15.939l-2.093 0.622 53.504-17.835 0.299 0.597v544.555c0 47.128-38.205 85.333-85.333 85.333v0z" />
<glyph unicode="&#xe934;" glyph-name="border-angle" d="M912.512 661.12c-12.583 0-22.784 10.201-22.784 22.784v0 99.029c-0.024 25.463-20.66 46.098-46.12 46.123h-98.989c-12.583 0-22.784 10.201-22.784 22.784v0c0 12.583 10.201 22.784 22.784 22.784v0h98.987c50.61-0.073 91.618-41.081 91.691-91.684v-99.036c0-12.583-10.201-22.784-22.784-22.784v0zM600.448 829.099h-183.552c-12.583 0-22.784 10.201-22.784 22.784s10.201 22.784 22.784 22.784v0h183.467c12.583 0 22.784-10.201 22.784-22.784s-10.201-22.784-22.784-22.784v0zM600.448 21.376h-183.552c-12.583 0-22.784 10.201-22.784 22.784s10.201 22.784 22.784 22.784v0h183.467c12.583 0 22.784-10.201 22.784-22.784s-10.201-22.784-22.784-22.784v0zM272.768 21.333h-99.029c-50.61 0.073-91.618 41.081-91.691 91.684v99.036c0 12.583 10.201 22.784 22.784 22.784v0c12.583 0 22.784-10.201 22.784-22.784v0-99.029c0.024-25.463 20.66-46.098 46.12-46.123h99.032c12.583 0 22.784-10.201 22.784-22.784v0c0-12.583-10.201-22.784-22.784-22.784v0zM843.563 21.333h-98.987c-12.583 0-22.784 10.201-22.784 22.784v0c0 12.583 10.201 22.784 22.784 22.784v0h98.987c25.463 0.024 46.098 20.66 46.123 46.12v99.031c0 12.583 10.201 22.784 22.784 22.784v0c12.583 0 22.784-10.201 22.784-22.784v0-99.029c-0.073-50.61-41.081-91.618-91.684-91.691h-0.007zM104.789 661.12c-12.583 0-22.784 10.201-22.784 22.784v0 99.029c0.073 50.61 41.081 91.618 91.684 91.691h99.036c12.583 0 22.784-10.201 22.784-22.784v0c0-12.583-10.201-22.784-22.784-22.784v0h-99.029c-25.463-0.024-46.098-20.66-46.123-46.12v-99.031c0-12.583-10.201-22.784-22.784-22.784v0zM912.512 333.44c-12.583 0-22.784 10.201-22.784 22.784v0 183.552c0 12.583 10.201 22.784 22.784 22.784s22.784-10.201 22.784-22.784v0-183.467c0-0.025 0-0.055 0-0.085 0-12.583-10.201-22.784-22.784-22.784 0 0 0 0 0 0v0zM104.789 333.44c-12.583 0-22.784 10.201-22.784 22.784v0 183.552c0 12.583 10.201 22.784 22.784 22.784s22.784-10.201 22.784-22.784v0-183.467c0-0.025 0-0.055 0-0.085 0-12.583-10.201-22.784-22.784-22.784 0 0 0 0 0 0v0z" />
<glyph unicode="&#xe935;" glyph-name="border-radius" d="M210.816 874.667h100.395c13.856 0 25.088-11.232 25.088-25.088s-11.232-25.088-25.088-25.088v0h-100.395c-41.591 0-75.307-33.716-75.307-75.307v0-100.395c0-13.856-11.232-25.088-25.088-25.088s-25.088 11.232-25.088 25.088v0 100.395c0 69.302 56.181 125.483 125.483 125.483v0zM210.816 21.333h100.395c13.856 0 25.088 11.232 25.088 25.088s-11.232 25.088-25.088 25.088v0h-100.395c-41.591 0-75.307 33.716-75.307 75.307v100.395c0 13.856-11.232 25.088-25.088 25.088v0c-13.856 0-25.088-11.232-25.088-25.088v0-100.395c0-69.302 56.181-125.483 125.483-125.483v0zM813.184 21.333h-100.395c-13.856 0-25.088 11.232-25.088 25.088s11.232 25.088 25.088 25.088v0h100.395c41.591 0 75.307 33.716 75.307 75.307v0 100.395c0 13.856 11.232 25.088 25.088 25.088s25.088-11.232 25.088-25.088v0-100.395c0-69.302-56.181-125.483-125.483-125.483v0zM813.184 874.667h-100.395c-13.856 0-25.088-11.232-25.088-25.088s11.232-25.088 25.088-25.088v0h100.395c41.591 0 75.307-33.716 75.307-75.307v0-100.395c0-13.856 11.232-25.088 25.088-25.088s25.088 11.232 25.088 25.088v0 100.395c0 69.302-56.181 125.483-125.483 125.483v0z" />
<glyph unicode="&#xe936;" glyph-name="border" d="M915.669 660.779c-12.706 0.024-22.997 10.33-22.997 23.040 0 0 0 0 0 0v0 98.987c-0.024 25.322-20.545 45.842-45.864 45.867h-98.946c-12.706 0.024-22.997 10.33-22.997 23.040 0 0 0 0 0 0v0c0 12.701 10.296 22.997 22.997 22.997v0h98.944c50.738-0.049 91.855-41.166 91.904-91.899v-98.992c0-12.725-10.315-23.040-23.040-23.040v0zM603.776 828.629h-183.467c-12.713 0-23.019 10.306-23.019 23.019s10.306 23.019 23.019 23.019v0h183.467c12.713 0 23.019-10.306 23.019-23.019s-10.306-23.019-23.019-23.019v0zM603.776 21.333h-183.467c-12.713 0-23.019 10.306-23.019 23.019s10.306 23.019 23.019 23.019v0h183.467c12.713 0 23.019-10.306 23.019-23.019s-10.306-23.019-23.019-23.019v0zM276.267 21.333h-98.987c-50.738 0.049-91.855 41.166-91.904 91.899v98.992c0 0 0 0 0 0 0 12.71 10.291 23.016 22.995 23.040h0.002c12.706-0.024 22.997-10.33 22.997-23.040 0 0 0 0 0 0v0-98.987c0.024-25.322 20.545-45.842 45.864-45.867h98.989c12.706-0.024 22.997-10.33 22.997-23.040 0 0 0 0 0 0v0c-0.024-12.676-10.282-22.949-22.95-22.997h-0.005zM846.763 21.333h-98.944c-12.691 0.024-22.973 10.306-22.997 22.995v0.002c0 0 0 0 0 0 0 12.71 10.291 23.016 22.995 23.040h98.946c25.322 0.024 45.842 20.545 45.867 45.864v98.989c0 0 0 0 0 0 0 12.71 10.291 23.016 22.995 23.040h0.002c12.706-0.024 22.997-10.33 22.997-23.040 0 0 0 0 0 0v0-98.987c-0.049-50.723-41.142-91.831-91.854-91.904h-0.007zM108.373 660.779c-12.706 0.024-22.997 10.33-22.997 23.040 0 0 0 0 0 0v0 98.987c0.049 50.738 41.166 91.855 91.899 91.904h98.991c12.701 0 22.997-10.296 22.997-22.997v0c0 0 0 0 0 0 0-12.71-10.291-23.016-22.995-23.040h-98.989c-25.322-0.024-45.842-20.545-45.867-45.864v-98.989c0-12.725-10.315-23.040-23.040-23.040v0zM915.669 333.269c-12.701 0-22.997 10.296-22.997 22.997v0 183.467c0 12.713 10.306 23.019 23.019 23.019s23.019-10.306 23.019-23.019v0-183.467c0 0 0 0 0 0 0-12.701-10.296-22.997-22.997-22.997-0.015 0-0.030 0-0.045 0h0.002zM108.373 333.269c-12.701 0-22.997 10.296-22.997 22.997v0 183.467c0 12.713 10.306 23.019 23.019 23.019s23.019-10.306 23.019-23.019v0-183.467c0 0 0 0 0 0 0-12.701-10.296-22.997-22.997-22.997-0.015 0-0.030 0-0.045 0h0.002z" />
<glyph unicode="&#xe937;" glyph-name="bottom" d="M137.344 655.019l353.109-353.109c5.513-5.516 13.132-8.928 21.547-8.928s16.033 3.412 21.547 8.928l353.109 353.109c5.514 5.514 13.132 8.925 21.547 8.925 16.829 0 30.472-13.643 30.472-30.472 0-8.414-3.411-16.032-8.925-21.547l-353.109-353.109c-16.545-16.538-39.398-26.767-64.64-26.767s-48.095 10.229-64.64 26.767l-353.109 353.109c-5.514 5.514-8.925 13.132-8.925 21.547 0 16.829 13.643 30.472 30.472 30.472 8.414 0 16.032-3.411 21.547-8.925v0z" />
<glyph unicode="&#xe938;" glyph-name="brush" d="M512 21.333c-54.197 0.001-98.131 43.937-98.131 98.133 0 2.869 0.123 5.708 0.364 8.514l-0.025-0.365 5.803 69.504c0.188 2.121 0.294 4.589 0.294 7.082 0 42.882-31.631 78.377-72.834 84.424l-0.463 0.056-109.099 15.573c-62.342 9.413-109.623 62.481-109.909 126.647v59.763c0 23.564 19.103 42.667 42.667 42.667v0 213.333c0 70.692 57.308 128 128 128v0h426.667c70.692 0 128-57.308 128-128v0-213.333c23.564 0 42.667-19.103 42.667-42.667v0-59.733c-0.264-64.215-47.553-117.305-109.199-126.632l-0.711-0.088-109.099-15.573c-41.666-6.104-73.297-41.598-73.297-84.48 0-2.493 0.107-4.961 0.316-7.4l-0.022 0.317 5.803-69.504c0.214-2.428 0.335-5.253 0.335-8.107 0-54.195-43.932-98.13-98.127-98.133v0zM170.667 490.667v-59.733c0.169-42.808 31.691-78.203 72.785-84.421l0.474-0.059 109.141-15.573c62.466-9.187 109.875-62.412 109.875-126.71 0-3.713-0.158-7.389-0.468-11.022l0.033 0.473-5.973-69.504c-0.109-1.302-0.171-2.818-0.171-4.348 0-30.633 24.833-55.467 55.467-55.467s55.467 24.833 55.467 55.467c0 1.53-0.062 3.046-0.184 4.545l0.013-0.197-5.803 69.504c-0.282 3.185-0.442 6.89-0.442 10.633 0 64.301 47.413 117.528 109.186 126.627l0.696 0.084 109.141 15.573c41.612 6.196 73.204 41.572 73.429 84.371v59.757zM298.667 832c-47.128 0-85.333-38.205-85.333-85.333v0-213.333h597.333v213.333c0 47.128-38.205 85.333-85.333 85.333v0z" />
<glyph unicode="&#xe939;" glyph-name="bulb-1" d="M424.491 65.109h174.933c12.088 0 21.888-9.8 21.888-21.888s-9.8-21.888-21.888-21.888v0h-174.933c-12.088 0-21.888 9.8-21.888 21.888s9.8 21.888 21.888 21.888v0zM662.016 352.811c68.402 48.065 112.555 126.624 112.555 215.496 0 145.014-117.557 262.571-262.571 262.571s-262.571-117.557-262.571-262.571c0-88.872 44.153-167.431 111.719-214.939l0.835-0.557c11.379-8.012 18.723-21.089 18.731-35.882v-54.913c0-48.33 39.179-87.509 87.509-87.509v0h87.509c48.33 0 87.509 39.179 87.509 87.509v0 54.912c0.018 14.801 7.378 27.879 18.634 35.79l0.14 0.093zM687.061 262.016c0-72.507-58.778-131.285-131.285-131.285h-87.509c-72.507 0-131.285 58.778-131.285 131.285v54.912c-79.773 56.073-131.264 147.705-131.264 251.363 0 169.167 137.137 306.304 306.304 306.304s306.304-137.137 306.304-306.304c0-103.658-51.491-195.29-130.29-250.713l-0.974-0.649z" />
<glyph unicode="&#xe93a;" glyph-name="bulb" d="M424.448 65.109h174.933c12.088 0 21.888-9.8 21.888-21.888s-9.8-21.888-21.888-21.888v0h-174.933c-12.088 0-21.888 9.8-21.888 21.888s9.8 21.888 21.888 21.888v0zM555.733 130.731h-87.509c-72.486 0.073-131.231 58.802-131.328 131.276v54.921c-79.798 56.079-131.307 147.732-131.307 251.415 0 169.191 137.156 306.347 306.347 306.347s306.347-137.156 306.347-306.347c0-103.683-51.508-195.335-130.332-250.765l-0.975-0.65v-54.955c-0.097-72.444-58.799-131.146-131.234-131.243h-0.009zM512 830.891c-0.006 0-0.012 0-0.019 0-145.014 0-262.571-117.557-262.571-262.571 0-88.88 44.161-167.446 111.738-214.952l0.836-0.557c11.36-8.018 18.688-21.090 18.688-35.874 0-0.003 0-0.006 0-0.009v0-54.955c0.097-48.297 39.248-87.418 87.547-87.467h87.514c48.311 0.049 87.461 39.199 87.509 87.505v54.917c0.015 14.792 7.357 27.866 18.592 35.79l0.138 0.092c68.36 48.078 112.481 126.62 112.481 215.467 0 144.981-117.485 262.522-262.445 262.613h-0.009z" />
<glyph unicode="&#xe93b;" glyph-name="calendar-1" d="M213.333 29.867c-70.692 0-128 57.308-128 128v0 512c0 70.692 57.308 128 128 128v0h64v-72.533c0-11.782 9.551-21.333 21.333-21.333s21.333 9.551 21.333 21.333v0 51.2h-42.667v76.8c0 11.782 9.551 21.333 21.333 21.333s21.333-9.551 21.333-21.333v0-55.467h384v-72.533c0-11.782 9.551-21.333 21.333-21.333s21.333 9.551 21.333 21.333v0 51.2h-42.667v76.8c0 11.782 9.551 21.333 21.333 21.333s21.333-9.551 21.333-21.333v0-55.467h64c70.692 0 128-57.308 128-128v0-512c0-70.692-57.308-128-128-128v0zM128 157.867c0-47.128 38.205-85.333 85.333-85.333v0h597.333c47.128 0 85.333 38.205 85.333 85.333v0 341.333h-768zM381.525 203.051c-9.239 5.895-16.805 13.61-22.354 22.691l-0.174 0.306c-5.955 9.71-10.559 20.999-13.18 33.028l-0.132 0.721c-2.715 11.898-4.27 25.562-4.27 39.589 0 0.407 0.001 0.814 0.004 1.221v-0.062c-0.001 0.189-0.001 0.413-0.001 0.637 0 14.377 1.476 28.409 4.285 41.953l-0.231-1.332c2.585 13.049 7.024 24.654 13.095 35.201l-0.295-0.555c5.597 9.712 13.188 17.684 22.261 23.561l0.267 0.162c9.026 5.56 19.962 8.854 31.668 8.854 0.582 0 1.162-0.008 1.74-0.024l-0.085 0.002c0.536 0.017 1.165 0.026 1.798 0.026 11.744 0 22.719-3.295 32.049-9.011l-0.268 0.153c9.316-6.021 16.9-13.946 22.352-23.269l0.176-0.325c5.702-9.843 10.058-21.283 12.43-33.433l0.114-0.701c2.47-12.068 3.884-25.939 3.884-40.14 0-0.258 0-0.516-0.001-0.774v0.040c0.002-0.321 0.003-0.7 0.003-1.079 0-14.261-1.649-28.137-4.768-41.447l0.242 1.225c-2.839-12.897-7.482-24.307-13.725-34.642l0.285 0.508c-5.771-9.482-13.392-17.281-22.418-23.084l-0.281-0.169c-9.232-5.403-20.329-8.594-32.171-8.594s-22.938 3.191-32.477 8.759l0.306-0.165zM397.824 368.768c-4.605-4.874-8.261-10.699-10.639-17.144l-0.113-0.349c-2.735-6.933-4.884-15.033-6.076-23.44l-0.068-0.582c-1.222-7.934-1.92-17.087-1.92-26.404 0-0.108 0-0.215 0-0.322v0.017c0-0.085 0-0.186 0-0.287 0-8.689 0.636-17.23 1.864-25.577l-0.114 0.947c1.093-8.179 3.187-15.59 6.184-22.52l-0.211 0.547c2.553-6.096 6.195-11.271 10.727-15.507l0.025-0.023c4.134-3.714 9.63-5.986 15.656-5.986 0.271 0 0.541 0.005 0.81 0.014l-0.039-0.001c0.167-0.004 0.363-0.007 0.56-0.007 6.081 0 11.615 2.338 15.754 6.165l-0.015-0.014c4.618 4.36 8.273 9.687 10.648 15.662l0.104 0.295c2.625 6.385 4.655 13.821 5.745 21.56l0.058 0.499c1.141 7.439 1.792 16.022 1.792 24.757 0 0.011 0 0.023 0 0.034v-0.002c-0.015 9.222-0.666 18.279-1.911 27.145l0.119-1.033c-1.156 8.955-3.251 17.065-6.218 24.741l0.245-0.72c-2.512 6.787-6.166 12.609-10.777 17.521l0.025-0.027c-4.115 4.154-9.821 6.726-16.128 6.726s-12.013-2.572-16.126-6.725l-0.002-0.002zM525.824 197.504c-3.2 0-6.016 2.347-8.533 7.040-2.070 4.013-3.283 8.758-3.283 13.787 0 0.974 0.046 1.938 0.135 2.889l-0.009-0.122c0.225 3.556 0.818 6.875 1.745 10.053l-0.081-0.325c1.011 3.588 2.591 6.718 4.66 9.458l-0.052-0.071c2.655 3.281 5.551 6.177 8.723 8.747l0.109 0.085q7.040 6.101 16.299 14.336t19.541 18.517c6.598 6.547 12.759 13.506 18.453 20.847l0.363 0.487c5.13 6.635 9.854 14.115 13.844 22.030l0.364 0.797c3.477 6.784 5.549 14.789 5.632 23.269v0.027c0.014 0.318 0.022 0.691 0.022 1.065 0 6.449-2.384 12.341-6.32 16.842l0.026-0.030c-3.912 4.244-9.498 6.894-15.704 6.894-0.359 0-0.717-0.009-1.071-0.026l0.050 0.002c-0.419 0.031-0.908 0.048-1.4 0.048-6.509 0-12.309-3.037-16.060-7.771l-0.033-0.043c-3.682-5.585-5.873-12.436-5.873-19.799 0-0.795 0.026-1.584 0.076-2.366l-0.005 0.107c0.060-0.564 0.094-1.218 0.094-1.879 0-4.453-1.547-8.546-4.133-11.768l0.029 0.037c-3.308-2.572-7.52-4.124-12.094-4.124-0.745 0-1.479 0.041-2.203 0.121l0.089-0.008c-0.843-0.095-1.821-0.149-2.811-0.149-5.009 0-9.694 1.388-13.692 3.8l0.119-0.067c-2.735 3.152-4.402 7.295-4.402 11.828 0 0.779 0.049 1.546 0.145 2.299l-0.009-0.089c-0.064 1.088-0.1 2.36-0.1 3.641 0 16.678 6.146 31.92 16.296 43.586l-0.069-0.081c11.537 10.889 27.136 17.582 44.298 17.582 1.859 0 3.699-0.079 5.518-0.232l-0.237 0.016c1.494 0.148 3.23 0.232 4.986 0.232 29.667 0 53.717-24.050 53.717-53.717 0-1.478-0.060-2.942-0.177-4.39l0.012 0.19c-0.043-7.545-1.352-14.771-3.725-21.494l0.141 0.46c-2.768-8.067-5.939-14.972-9.699-21.494l0.312 0.588c-4.367-7.665-8.755-14.203-13.56-20.4l0.29 0.389c-4.992-6.485-10.069-12.8-15.232-18.389-6.187-6.741-12.8-13.355-19.541-19.84s-14.080-12.8-21.675-18.987h74.965q10.155 0 10.155-17.323t-10.155-17.323z" />
<glyph unicode="&#xe93c;" glyph-name="calendar-2" d="M810.667 21.333h-597.333c-70.692 0-128 57.308-128 128v0 512c0 70.692 57.308 128 128 128v0h64v64c0 11.782 9.551 21.333 21.333 21.333s21.333-9.551 21.333-21.333v0-64h384v64c0 11.782 9.551 21.333 21.333 21.333s21.333-9.551 21.333-21.333v0-64h64c70.692 0 128-57.308 128-128v0-512c0-70.692-57.308-128-128-128v0zM213.333 746.667c-47.128 0-85.333-38.205-85.333-85.333v0-512c0-47.128 38.205-85.333 85.333-85.333v0h597.333c47.128 0 85.333 38.205 85.333 85.333v0 512c0 47.128-38.205 85.333-85.333 85.333v0h-64v-64c0-11.782-9.551-21.333-21.333-21.333s-21.333 9.551-21.333 21.333v0 64h-384v-64c0-11.782-9.551-21.333-21.333-21.333s-21.333 9.551-21.333 21.333v0 64zM512 554.667c-11.782 0-21.333-9.551-21.333-21.333v0-106.667h-106.667c-11.782 0-21.333-9.551-21.333-21.333s9.551-21.333 21.333-21.333v0h106.667v-106.667c0-11.782 9.551-21.333 21.333-21.333s21.333 9.551 21.333 21.333v0 106.667h106.667c11.782 0 21.333 9.551 21.333 21.333s-9.551 21.333-21.333 21.333v0h-106.667v106.667c0 11.782-9.551 21.333-21.333 21.333v0z" />
<glyph unicode="&#xe93d;" glyph-name="calendar" d="M213.333 32c-70.692 0-128 57.308-128 128v0 512c0 70.692 57.308 128 128 128v0h64v42.667c0 11.782 9.551 21.333 21.333 21.333v0c11.782 0 21.333-9.551 21.333-21.333v0-42.667h384v42.667c0 11.782 9.551 21.333 21.333 21.333v0c11.782 0 21.333-9.551 21.333-21.333v0-42.667h64c70.692 0 128-57.308 128-128v0-512c0-70.692-57.308-128-128-128v0zM128 160c0-47.128 38.205-85.333 85.333-85.333v0h597.333c47.128 0 85.333 38.205 85.333 85.333v0 320h-768zM128 672v-149.333h768v149.333c0 47.128-38.205 85.333-85.333 85.333v0h-64v-42.667c0-11.782-9.551-21.333-21.333-21.333v0c-11.782 0-21.333 9.551-21.333 21.333v0 42.667h-384v-42.667c0-11.782-9.551-21.333-21.333-21.333v0c-11.782 0-21.333 9.551-21.333 21.333v0 42.667h-64c-47.128 0-85.333-38.205-85.333-85.333v0zM381.525 194.56c-9.258 5.888-16.838 13.604-22.397 22.692l-0.174 0.306c-5.964 9.709-10.569 20.999-13.181 33.032l-0.131 0.717c-2.715 11.87-4.271 25.501-4.271 39.496 0 0.455 0.002 0.909 0.005 1.363v-0.070c-0.001 0.215-0.001 0.47-0.001 0.725 0 14.315 1.461 28.288 4.241 41.78l-0.229-1.331c2.573 13.048 7.013 24.655 13.093 35.196l-0.293-0.551c5.594 9.739 13.202 17.729 22.303 23.604l0.267 0.162c8.998 5.535 19.898 8.813 31.564 8.813 0.603 0 1.205-0.009 1.804-0.026l-0.088 0.002c0.548 0.017 1.192 0.027 1.838 0.027 11.74 0 22.713-3.279 32.055-8.971l-0.272 0.154c9.313-6.025 16.896-13.949 22.352-23.269l0.176-0.326c5.702-9.843 10.058-21.283 12.43-33.433l0.114-0.701c2.47-12.094 3.884-25.995 3.884-40.226 0-0.243 0-0.486-0.001-0.729v0.038c0.005-0.501 0.008-1.093 0.008-1.685 0-13.918-1.557-27.471-4.507-40.497l0.233 1.222c-2.821-12.896-7.466-24.309-13.722-34.635l0.282 0.502c-5.762-9.516-13.385-17.343-22.42-23.17l-0.279-0.168c-8.73-5.372-19.305-8.555-30.625-8.555-0.559 0-1.115 0.008-1.67 0.023l0.082-0.002c-0.58-0.020-1.261-0.032-1.945-0.032-11.282 0-21.823 3.171-30.781 8.669l0.256-0.146zM397.824 360.277c-4.597-4.864-8.252-10.674-10.638-17.101l-0.114-0.35c-2.736-6.946-4.884-15.060-6.076-23.482l-0.068-0.582c-1.222-7.944-1.92-17.107-1.92-26.434 0-0.097 0-0.193 0-0.29v0.015c0-0.087 0-0.189 0-0.291 0-8.704 0.652-17.256 1.909-25.609l-0.116 0.94c1.098-8.182 3.177-15.593 6.144-22.534l-0.213 0.56c2.601-6.062 6.236-11.215 10.731-15.468l0.021-0.020c4.14-3.714 9.64-5.985 15.672-5.985 0.265 0 0.53 0.004 0.793 0.013l-0.038-0.001c0.172-0.005 0.374-0.007 0.577-0.007 6.076 0 11.605 2.339 15.737 6.165l-0.015-0.014c4.626 4.355 8.283 9.683 10.65 15.664l0.102 0.294c2.629 6.399 4.66 13.85 5.746 21.605l0.057 0.496c1.141 7.32 1.793 15.763 1.793 24.359 0 0.151 0 0.303-0.001 0.454v-0.024c0 0.039 0 0.085 0 0.131 0 9.164-0.651 18.175-1.91 26.991l0.118-1.010c-1.122 8.956-3.219 17.084-6.213 24.763l0.24-0.699c-2.5 6.776-6.155 12.586-10.775 17.475l0.023-0.024c-3.947 4.134-9.501 6.704-15.655 6.704-0.166 0-0.332-0.002-0.497-0.006h0.025c-0.135 0.003-0.295 0.005-0.455 0.005-6.16 0-11.72-2.57-15.666-6.695l-0.008-0.008zM525.824 189.013c-3.2 0-6.016 2.304-8.533 6.997-2.053 3.98-3.256 8.686-3.256 13.673 0 1.030 0.051 2.048 0.152 3.051l-0.010-0.127c0.209 3.534 0.788 6.841 1.701 10.006l-0.079-0.321c1.023 3.59 2.617 6.719 4.701 9.456l-0.050-0.069c2.644 3.281 5.526 6.176 8.683 8.748l0.106 0.084c4.693 4.267 10.112 8.832 16.299 14.336s12.8 11.648 19.584 18.517c6.608 6.544 12.77 13.504 18.456 20.85l0.36 0.483c5.153 6.647 9.879 14.144 13.852 22.083l0.356 0.787c3.511 6.777 5.6 14.784 5.675 23.272v0.024c0.015 0.33 0.024 0.717 0.024 1.106 0 6.45-2.385 12.342-6.322 16.844l0.026-0.030c-3.912 4.244-9.498 6.894-15.704 6.894-0.359 0-0.717-0.009-1.071-0.026l0.050 0.002c-0.413 0.030-0.894 0.047-1.379 0.047-6.502 0-12.295-3.037-16.039-7.769l-0.033-0.043c-3.685-5.567-5.88-12.4-5.88-19.746 0-0.829 0.028-1.651 0.083-2.466l-0.006 0.11c0.042-0.474 0.067-1.026 0.067-1.583 0-4.586-1.637-8.789-4.358-12.058l0.025 0.031c-3.307-2.57-7.517-4.12-12.089-4.12-0.731 0-1.453 0.040-2.164 0.117l0.088-0.008c-0.834-0.092-1.801-0.144-2.78-0.144-5.033 0-9.743 1.386-13.768 3.796l0.122-0.068c-2.731 3.173-4.394 7.333-4.394 11.882 0 0.76 0.046 1.508 0.136 2.244l-0.009-0.088c-0.064 1.094-0.101 2.374-0.101 3.662 0 16.699 6.146 31.962 16.298 43.652l-0.070-0.082c11.544 10.84 27.125 17.499 44.261 17.499 1.872 0 3.725-0.079 5.557-0.235l-0.239 0.016c1.099 0.075 2.383 0.118 3.676 0.118 15.393 0 29.365-6.078 39.649-15.966l-0.019 0.018c9.48-10.236 15.296-23.985 15.296-39.092 0-0.957-0.023-1.909-0.070-2.855l0.005 0.133c-0.032-7.543-1.342-14.77-3.725-21.49l0.141 0.455c-2.791-8.078-5.961-14.982-9.707-21.513l0.321 0.606c-4.344-7.65-8.746-14.188-13.583-20.37l0.271 0.36c-4.949-6.485-10.069-12.587-15.232-18.347q-9.216-10.112-19.541-19.883t-21.632-18.987h74.923c6.784 0 10.197-5.76 10.197-17.28s-3.371-17.323-10.197-17.323z" />
<glyph unicode="&#xe93e;" glyph-name="captcha" d="M682.624 21.333h-341.333c-70.692 0-128 57.308-128 128v0 597.333c0 70.692 57.308 128 128 128v0h341.333c70.692 0 128-57.308 128-128v0-597.333c0-70.692-57.308-128-128-128v0zM341.291 832c-47.128 0-85.333-38.205-85.333-85.333v0-597.333c0-47.128 38.205-85.333 85.333-85.333v0h341.333c47.128 0 85.333 38.205 85.333 85.333v0 597.333c0 47.128-38.205 85.333-85.333 85.333v0h-42.667c0-23.564-19.103-42.667-42.667-42.667v0h-170.667c-23.564 0-42.667 19.103-42.667 42.667v0zM697.088 618.667h-370.133c-11.782 0-21.333 9.551-21.333 21.333s9.551 21.333 21.333 21.333v0h370.133c11.782 0 21.333-9.551 21.333-21.333s-9.551-21.333-21.333-21.333v0zM622.891 448h-296.064c-11.782 0-21.333 9.551-21.333 21.333s9.551 21.333 21.333 21.333v0h296.064c11.782 0 21.333-9.551 21.333-21.333s-9.551-21.333-21.333-21.333v0zM440.277 277.333h-113.323c-11.782 0-21.333 9.551-21.333 21.333s9.551 21.333 21.333 21.333v0h113.323c11.782 0 21.333-9.551 21.333-21.333s-9.551-21.333-21.333-21.333v0z" />
<glyph unicode="&#xe93f;" glyph-name="card-1" d="M810.667 789.333h-597.333c-70.692 0-128-57.308-128-128v0-61.653h853.333v61.653c0 70.692-57.308 128-128 128v0zM85.333 234.667c0-70.692 57.308-128 128-128v0h597.333c70.692 0 128 57.308 128 128v0 322.347h-853.333zM256 341.333h256c11.782 0 21.333-9.551 21.333-21.333s-9.551-21.333-21.333-21.333v0h-256c-11.782 0-21.333 9.551-21.333 21.333s9.551 21.333 21.333 21.333v0z" />
<glyph unicode="&#xe940;" glyph-name="card" d="M810.667 106.667h-597.333c-70.692 0-128 57.308-128 128v0 426.667c0 70.692 57.308 128 128 128v0h597.333c70.692 0 128-57.308 128-128v0-426.667c0-70.692-57.308-128-128-128v0zM128 554.667v-320c0-47.128 38.205-85.333 85.333-85.333v0h597.333c47.128 0 85.333 38.205 85.333 85.333v0 320zM213.333 746.667c-47.128 0-85.333-38.205-85.333-85.333v0-64h768v64c0 47.128-38.205 85.333-85.333 85.333v0zM512 298.667h-256c-11.782 0-21.333 9.551-21.333 21.333s9.551 21.333 21.333 21.333v0h256c11.782 0 21.333-9.551 21.333-21.333s-9.551-21.333-21.333-21.333v0z" />
<glyph unicode="&#xe941;" glyph-name="chart-column" d="M130.261 852.224v-718.592c0-37.208 30.163-67.371 67.371-67.371v0h718.592c12.407 0 22.464-10.057 22.464-22.464s-10.057-22.464-22.464-22.464h-718.592c-62.021 0-112.299 50.278-112.299 112.299v0 718.592c0 12.407 10.057 22.464 22.464 22.464s22.464-10.057 22.464-22.464v0zM309.931 582.741v-359.296c0-12.407-10.057-22.464-22.464-22.464s-22.464 10.057-22.464 22.464v0 359.296c0 12.407 10.057 22.464 22.464 22.464s22.464-10.057 22.464-22.464v0zM489.557 313.259v-89.856c0-12.407-10.057-22.464-22.464-22.464s-22.464 10.057-22.464 22.464v0 89.856c0 12.407 10.057 22.464 22.464 22.464s22.464-10.057 22.464-22.464v0zM669.227 762.411v-538.965c0-12.407-10.057-22.464-22.464-22.464s-22.464 10.057-22.464 22.464v0 538.965c0 12.407 10.057 22.464 22.464 22.464s22.464-10.057 22.464-22.464v0zM848.853 492.928v-269.483c0-12.407-10.057-22.464-22.464-22.464s-22.464 10.057-22.464 22.464v0 269.483c0 12.407 10.057 22.464 22.464 22.464s22.464-10.057 22.464-22.464v0z" />
<glyph unicode="&#xe942;" glyph-name="chart-column1" d="M130.261 852.224v-718.592c0-37.208 30.163-67.371 67.371-67.371v0h718.592c12.407 0 22.464-10.057 22.464-22.464s-10.057-22.464-22.464-22.464h-718.592c-62.021 0-112.299 50.278-112.299 112.299v0 718.592c0 12.407 10.057 22.464 22.464 22.464s22.464-10.057 22.464-22.464v0zM392.704 582.443v-412.928c0-14.251-35.371-25.6-78.976-25.6s-78.891 11.136-78.891 25.429v413.099c0 14.037 35.371 25.6 78.976 25.6s78.891-11.563 78.891-25.6zM622.763 430.933v-270.507c0-9.344-35.371-17.067-78.976-17.067s-78.891 7.723-78.891 17.067v270.507c0 9.472 35.371 17.067 78.976 17.067s78.891-7.595 78.891-17.067zM852.779 699.648v-523.435c0-18.048-35.371-32.725-78.976-32.725s-78.891 14.635-78.891 32.725v523.435c0 18.091 35.371 32.725 78.976 32.725s78.891-14.635 78.891-32.725z" />
<glyph unicode="&#xe943;" glyph-name="chart-column2-1" d="M109.696 70.101h804.565c13.455 0 24.363-10.908 24.363-24.363v0c0-13.455-10.908-24.363-24.363-24.363h-804.565c-0.013 0-0.028 0-0.043 0-13.432 0-24.32 10.888-24.32 24.32 0 0.015 0 0.030 0 0.045v-0.002c0 13.455 10.908 24.363 24.363 24.363v0zM426.496 654.037h132.693c31.277-0.571 56.412-26.061 56.412-57.42 0-0.318-0.003-0.636-0.008-0.953l0.001 0.048v-376.704h-249.941v371.797c-0.006 0.334-0.010 0.728-0.010 1.122 0 33.863 27.094 61.398 60.786 62.109l0.066 0.001zM109.696 237.867v132.267c-0.003 0.219-0.004 0.478-0.004 0.737 0 33.914 27.158 61.486 60.913 62.153l0.062 0.001h89.813c31.272-0.547 56.413-26.027 56.413-57.378 0-0.333-0.003-0.665-0.008-0.997l0.001 0.050v-155.776h-188.971c-10.114 0.237-18.223 8.492-18.223 18.641 0 0.137 0.001 0.273 0.004 0.409v-0.020zM914.261 237.867c0.001-0.077 0.002-0.168 0.002-0.259 0-10.178-8.155-18.452-18.288-18.642h-231.655v592.768c-0.005 0.282-0.007 0.615-0.007 0.949 0 33.907 27.164 61.469 60.918 62.111l0.060 0.001h128c33.823-0.691 60.977-28.272 60.977-62.196 0-0.304-0.002-0.608-0.007-0.911l0.001 0.046z" />
<glyph unicode="&#xe944;" glyph-name="chart-column2" d="M834.773 874.667h-121.088c-57.284-0.097-103.693-46.521-103.765-103.801v-98.14h-178.773c-57.242-0.121-103.607-46.517-103.68-103.758v-98.14h-138.325c-57.193-0.12-103.542-46.379-103.808-103.527v-121.326c0.073-34.987 28.416-63.33 63.396-63.403h726.578c34.988 0.049 63.336 28.411 63.36 63.4v524.802c0 57.379-46.515 103.893-103.893 103.893v0zM431.019 626.773h178.901v-397.867h-236.459v340.181c0.097 31.82 25.866 57.589 57.676 57.685h0.009zM131.328 246.187v121.259c0.169 31.756 25.916 57.443 57.678 57.515h138.375v-196.053h-178.773c-9.479 0.096-17.128 7.791-17.152 17.278v0.002zM892.459 246.187c-0.12-9.451-7.81-17.067-17.279-17.067 0 0-0.001 0-0.001 0h-219.179v541.995c0.048 31.816 25.827 57.594 57.638 57.643h121.136c31.834-0.024 57.637-25.812 57.685-57.638v-0.005zM108.373 67.456h807.253c12.725 0 23.040-10.315 23.040-23.040v-0.043c0-12.725-10.315-23.040-23.040-23.040h-807.253c-12.725 0-23.040 10.315-23.040 23.040v0.043c0 12.725 10.315 23.040 23.040 23.040z" />
<glyph unicode="&#xe945;" glyph-name="chart-combination" d="M130.261 852.224v-718.592c0-37.208 30.163-67.371 67.371-67.371v0h718.592c12.407 0 22.464-10.057 22.464-22.464s-10.057-22.464-22.464-22.464h-718.592c-62.021 0-112.299 50.278-112.299 112.299v0 718.592c0 12.407 10.057 22.464 22.464 22.464s22.464-10.057 22.464-22.464v0zM931.84 566.784l-214.229-205.909c-21.477-20.368-50.566-32.895-82.581-32.895s-61.105 12.526-82.635 32.945l0.054-0.050-101.419 97.536c-12.887 12.226-30.344 19.745-49.557 19.745s-36.67-7.519-49.589-19.775l0.032 0.030-97.408-93.653c-4.295-4.071-10.111-6.575-16.512-6.575s-12.217 2.504-16.523 6.585l0.011-0.010c-4.213 3.991-6.835 9.625-6.835 15.872s2.622 11.881 6.825 15.863l0.010 0.009 97.408 93.483c21.477 20.368 50.566 32.895 82.581 32.895s61.105-12.526 82.635-32.945l-0.054 0.050 101.419-97.323c12.887-12.226 30.344-19.745 49.557-19.745s36.67 7.519 49.589 19.775l-0.032-0.030 214.229 205.952c4.295 4.071 10.111 6.575 16.512 6.575s12.217-2.504 16.523-6.585l-0.011 0.010c4.24-3.994 6.881-9.646 6.881-15.915s-2.64-11.921-6.87-15.904l-0.011-0.010z" />
<glyph unicode="&#xe946;" glyph-name="chart-instrument" d="M512 276.693c-0.017 0-0.038 0-0.059 0-62.021 0-112.299 50.278-112.299 112.299s50.278 112.299 112.299 112.299c23.080 0 44.533-6.962 62.375-18.902l-0.407 0.256 101.845 101.845c4.065 4.055 9.676 6.562 15.872 6.562 12.413 0 22.477-10.063 22.477-22.477 0-6.217-2.524-11.845-6.604-15.914v0l-101.845-101.76c11.682-17.43 18.643-38.878 18.643-61.952 0-61.997-50.259-112.256-112.256-112.256-0.089 0-0.179 0-0.268 0h0.014zM512 456.363c-0.013 0-0.028 0-0.043 0-37.208 0-67.371-30.163-67.371-67.371s30.163-67.371 67.371-67.371c37.193 0 67.346 30.139 67.371 67.326v0.002c-0.024 37.192-30.143 67.341-67.321 67.413h-0.007zM130.261 388.949c0-0.153 0-0.334 0-0.515 0-105.39 42.847-200.773 112.071-269.679l0.014-0.014c4.071-4.066 6.589-9.685 6.589-15.893 0-12.405-10.056-22.461-22.461-22.461-6.197 0-11.808 2.51-15.872 6.568v0c-77.391 77.241-125.269 184.030-125.269 302 0 235.641 191.025 426.667 426.667 426.667s426.667-191.025 426.667-426.667c0-117.822-47.757-224.49-124.97-301.701v0c-4.062-4.062-9.674-6.574-15.872-6.574-12.397 0-22.446 10.050-22.446 22.446 0 6.198 2.512 11.81 6.574 15.872v0c69.068 69.079 111.787 164.505 111.787 269.908 0 210.828-170.91 381.739-381.739 381.739-210.813 0-381.714-170.885-381.739-381.692v-0.002z" />
<glyph unicode="&#xe947;" glyph-name="chart-line" d="M130.261 852.224v-718.592c0-37.208 30.163-67.371 67.371-67.371v0h718.592c12.407 0 22.464-10.057 22.464-22.464s-10.057-22.464-22.464-22.464h-718.592c-62.021 0-112.299 50.278-112.299 112.299v0 718.592c0 12.407 10.057 22.464 22.464 22.464s22.464-10.057 22.464-22.464v0zM714.112 650.112c0-12.395 10.048-22.443 22.443-22.443v0h125.44l-221.867-221.867c-4.062-4.063-9.673-6.576-15.872-6.576s-11.81 2.513-15.872 6.576l-116.096 116.139c-12.192 12.191-29.034 19.731-47.637 19.731s-35.446-7.54-47.637-19.732l-125.44-125.44c-4.055-4.065-6.562-9.676-6.562-15.872 0-12.413 10.063-22.477 22.477-22.477 6.217 0 11.845 2.524 15.914 6.604v0l125.44 125.44c4.062 4.063 9.673 6.576 15.872 6.576s11.81-2.513 15.872-6.576v0l115.883-116.309c12.202-12.255 29.087-19.838 47.744-19.838s35.542 7.583 47.742 19.836l221.869 221.869v-125.44c0-12.407 10.057-22.464 22.464-22.464s22.464 10.057 22.464 22.464v0 179.797c0 0 0 0 0 0 0 12.395-10.048 22.443-22.443 22.443-0.030 0-0.060 0-0.090 0h-179.622c-0.013 0-0.028 0-0.043 0-12.395 0-22.443-10.048-22.443-22.443 0 0 0 0 0 0v0z" />
<glyph unicode="&#xe948;" glyph-name="chart-pie-1" d="M280.149 690.859c-92.224-62.266-152.061-166.398-152.061-284.506 0-188.984 153.202-342.187 342.187-342.187 173.885 0 317.478 129.699 339.313 297.634l0.183 1.72h-167.979c-0.895-0.413-1.659-0.958-2.302-1.62l-0.002-0.002c-3.198-3.14-5.66-7.019-7.109-11.361l-0.059-0.202c-23.899-67.793-87.405-115.506-162.055-115.506-94.681 0-171.435 76.754-171.435 171.435 0 74.65 47.713 138.155 114.306 161.685l1.2 0.37c4.555 1.558 8.434 4.076 11.553 7.329l0.010 0.010c0.664 0.645 1.209 1.409 1.602 2.257l0.020 0.047v167.808c-55.61-7.149-105.574-26.658-148.585-55.684l1.214 0.772zM427.52 577.835s0 0.085 0 0zM641.835 363.52v0zM470.315 748.501v-170.667c-2.236-24.041-19.14-43.594-41.585-49.742l-0.399-0.093c-50.858-17.94-86.65-65.587-86.65-121.594 0-71.046 57.594-128.64 128.64-128.64 56.007 0 103.654 35.792 121.316 85.75l0.277 0.9c6.24 22.844 25.793 39.748 49.609 41.967l0.225 0.017h170.667c0.374 0.013 0.814 0.020 1.256 0.020 21.703 0 39.296-17.593 39.296-39.296 0-1.194-0.053-2.375-0.157-3.541l0.011 0.151c-22.129-193.535-184.985-342.469-382.627-342.469-212.619 0-384.981 172.362-384.981 384.981 0 197.614 148.893 360.453 340.614 382.452l1.778 0.166c1.028 0.096 2.224 0.15 3.432 0.15 21.703 0 39.296-17.593 39.296-39.296 0-0.428-0.007-0.854-0.020-1.279l0.002 0.062zM871.979 622.805c-18.161 43.152-43.208 79.992-74.154 110.933l-0.001 0.001c-30.94 30.962-67.78 56.024-108.69 73.353l-2.243 0.844c-25.659 10.961-55.455 19.169-86.561 23.2l-1.716 0.182v-167.979c0.429-0.828 0.971-1.534 1.616-2.129l0.005-0.005c3.14-3.198 7.019-5.66 11.361-7.109l0.202-0.059q4.864-1.664 9.643-3.669c21.577-9.114 39.995-21.665 55.464-37.16l0.002-0.002c15.498-15.471 28.048-33.89 36.739-54.345l0.424-1.122q1.963-4.779 3.669-9.643c1.508-4.544 3.97-8.423 7.164-11.558l0.004-0.004c0.645-0.664 1.409-1.209 2.257-1.602l0.047-0.020h168.149c-4.251 32.694-12.455 62.354-24.225 90.136l0.844-2.243zM727.381 534.613v0zM598.613 663.381s0 0 0 0zM898.005 491.861h-170.667c-24.076 2.201-43.669 19.115-49.827 41.585l-0.093 0.399q-1.28 3.669-2.731 7.253c-6.833 16.233-16.258 30.091-27.903 41.727l-0.001 0.001c-11.637 11.646-25.495 21.071-40.884 27.587l-0.844 0.317q-3.584 1.493-7.253 2.731c-22.832 6.235-39.73 25.768-41.967 49.565l-0.017 0.227v170.667c-0.015 0.4-0.023 0.87-0.023 1.341 0 21.703 17.593 39.296 39.296 39.296 1.195 0 2.377-0.053 3.544-0.158l-0.151 0.011c38.763-4.414 74.154-13.903 107.188-27.872l-2.527 0.949c48.58-20.432 90.055-48.622 124.885-83.456v0c34.834-34.831 63.024-76.305 82.507-122.36l0.949-2.525c13.016-30.495 22.504-65.87 26.756-102.838l0.167-1.78c0.093-1.016 0.147-2.197 0.147-3.391 0-21.703-17.593-39.296-39.296-39.296-0.442 0-0.882 0.007-1.32 0.022l0.064-0.002z" />
<glyph unicode="&#xe949;" glyph-name="chart-pie" d="M470.357 21.376c-212.529 0.089-384.783 172.398-384.783 384.939 0 197.508 148.749 360.274 340.332 382.382l1.785 0.167c1.245 0.153 2.696 0.246 4.168 0.256h0.014c21.358-0.68 38.414-18.158 38.414-39.618 0-0.367-0.005-0.732-0.015-1.097l0.001 0.054v-170.667c-2.39-23.968-19.226-43.436-41.58-49.695l-0.404-0.097c-35.003-12.418-62.488-38.511-76.483-71.686l-0.317-0.847c-6.139-14.49-9.707-31.34-9.707-49.023 0-71.046 57.594-128.64 128.64-128.64 55.945 0 103.549 35.713 121.258 85.585l0.278 0.899c6.36 22.747 25.829 39.57 49.554 41.922l0.238 0.019h170.667c0.085 0.001 0.184 0.001 0.285 0.001 12.181 0 23.139-5.235 30.747-13.579l0.030-0.033c5.921-6.522 9.546-15.222 9.546-24.769 0-1.496-0.089-2.97-0.262-4.419l0.017 0.175c-22.201-193.433-184.993-342.263-382.548-342.272h-0.001zM427.691 745.813v0c-169.694-21.98-299.437-165.591-299.437-339.506 0-188.984 153.202-342.187 342.187-342.187 173.901 0 317.504 129.723 339.319 297.68l0.182 1.719h-168.064c-0.899-0.386-1.665-0.919-2.302-1.577l-0.002-0.002c-3.218-3.149-5.695-7.043-7.152-11.403l-0.059-0.202c-23.885-67.763-87.362-115.456-161.977-115.456-0.055 0-0.11 0-0.165 0h0.009c-94.638 0.056-171.336 76.788-171.336 171.435 0 74.642 47.703 138.143 114.286 161.678l1.2 0.37c4.538 1.526 8.413 3.985 11.56 7.165l0.002 0.003c0.657 0.65 1.2 1.412 1.601 2.256l0.021 0.048v167.979zM898.048 491.819h-170.667c-24.031 2.344-43.563 19.214-49.824 41.623l-0.096 0.403c-0.725 2.176-1.579 4.267-2.731 7.253-6.811 16.255-16.24 30.13-27.902 41.768l-0.002 0.002c-11.631 11.644-25.491 21.058-40.887 27.547l-0.841 0.315c-2.304 0.981-4.736 1.92-7.253 2.773-22.758 6.356-39.594 25.824-41.965 49.553l-0.019 0.239v170.667c-0.009 0.323-0.015 0.704-0.015 1.086 0 21.461 17.056 38.939 38.353 39.617l0.062 0.002c1.511-0.007 2.993-0.099 4.449-0.274l-0.183 0.018c38.759-4.399 74.151-13.889 107.18-27.87l-2.519 0.947c48.595-20.374 90.076-48.557 124.881-83.409l0.004-0.004c34.861-34.82 63.044-76.316 82.471-122.408l0.943-2.52c13.014-30.495 22.502-65.869 26.756-102.837l0.167-1.782c0.154-1.268 0.242-2.737 0.242-4.226 0-9.573-3.641-18.296-9.613-24.86l0.027 0.030c-7.64-8.401-18.614-13.654-30.815-13.654-0.072 0-0.143 0-0.215 0.001h0.011zM598.528 663.424v0c0.402-0.914 0.949-1.693 1.62-2.345l0.002-0.002c3.149-3.183 7.025-5.642 11.358-7.108l0.205-0.060c2.944-1.024 6.101-2.219 9.643-3.669 21.585-9.107 40.007-21.674 55.46-37.199l0.006-0.006c15.515-15.461 28.068-33.883 36.741-54.348l0.421-1.119c1.365-3.328 2.603-6.571 3.669-9.643 1.516-4.563 3.993-8.456 7.206-11.6l0.005-0.005c0.639-0.66 1.405-1.193 2.259-1.561l0.045-0.017h168.192c-4.204 32.789-12.412 62.556-24.223 90.427l0.841-2.235c-18.114 43.175-43.184 80.025-74.188 110.924l-0.009 0.009c-30.92 30.994-67.767 56.061-108.697 73.358l-2.237 0.839c-25.673 10.929-55.487 19.108-86.607 23.116l-1.713 0.18v-167.936z" />
<glyph unicode="&#xe94a;" glyph-name="chart-table-1" d="M393.472 282.069h237.013v-260.736h-237.013v260.736zM85.333 566.528h260.736v-237.013h-260.736v237.013zM393.472 566.528h237.013v-237.013h-237.013v237.013zM677.931 614.101h260.736v118.528c0 78.539-63.669 142.208-142.208 142.208h-118.528zM393.472 874.667h237.013v-260.736h-237.013v260.736zM677.931 282.069v-260.565h118.528c78.539 0 142.208 63.669 142.208 142.208v118.528zM346.069 282.069h-260.736v-118.528c0-78.539 63.669-142.208 142.208-142.208v0h118.528zM346.069 614.101v260.736h-118.528c-78.539 0-142.208-63.669-142.208-142.208v-118.528zM677.931 566.528h260.736v-237.013h-260.736v237.013z" />
<glyph unicode="&#xe94b;" glyph-name="chart-table" d="M796.459 21.333h-568.917c-78.5 0.097-142.111 63.708-142.208 142.199v568.926c0.097 78.5 63.708 142.111 142.199 142.208h568.927c78.5-0.097 142.111-63.708 142.208-142.199v-568.926c-0.097-78.5-63.708-142.111-142.199-142.208h-0.009zM677.931 282.069v-213.333h118.528c52.33 0.073 94.733 42.475 94.805 94.798v118.535zM393.472 282.069v-213.333h237.056v213.333zM132.736 282.069v-118.528c0.073-52.33 42.475-94.733 94.798-94.805h118.535v213.333zM677.931 566.528v-237.056h213.333v237.056zM393.472 566.528v-237.056h237.056v237.056zM132.736 566.528v-237.056h213.333v237.056zM677.931 827.264v-213.333h213.333v118.528c-0.073 52.33-42.475 94.733-94.798 94.805h-0.007zM393.472 827.264v-213.333h237.056v213.333zM227.541 827.264c-52.33-0.073-94.733-42.475-94.805-94.798v-118.535h213.333v213.333z" />
<glyph unicode="&#xe94c;" glyph-name="classify-1" d="M635.733 45.952l-101.077 179.669 101.077 179.712h202.155l100.779-179.712-101.077-179.669zM85.333 45.952l224.597 359.381 224.555-359.339zM579.413 652.331c0 99.229 80.441 179.669 179.669 179.669s179.669-80.441 179.669-179.669c0-99.229-80.441-179.669-179.669-179.669v0c-99.18 0.121-179.548 80.49-179.669 179.658v0.012zM130.261 472.661v359.339h359.296v-359.339z" />
</font>
</defs>
</svg>
